#N canvas 670 297 328 438 12;
#X obj 45 192 snapshot~;
#X obj 153 148 metro 10;
#X obj 45 86 env~ 8192;
#X obj 44 307 min;
#X obj 44 334 <;
#X obj 123 278 sel 1;
#X obj 253 286 sel 1;
#X obj 218 287 f 0;
#X obj 178 338 >;
#X obj 178 313 max;
#X obj 76 277 f 120;
#X obj 45 47 inlet~;
#X obj 128 34 loadbang;
#X msg 188 93 \; pd dsp 1 \;;
#X obj 234 46 inlet;
#X obj 75 383 outlet;
#X obj 221 386 outlet;
#X obj 128 59 t b b b b;
#X msg 126 212 120;
#X obj 127 178 delay 100;
#X connect 0 0 10 1;
#X connect 0 0 3 0;
#X connect 0 0 7 1;
#X connect 0 0 9 0;
#X connect 1 0 0 0;
#X connect 2 0 0 0;
#X connect 3 0 4 0;
#X connect 4 0 5 0;
#X connect 5 0 10 0;
#X connect 6 0 7 0;
#X connect 7 0 8 1;
#X connect 7 0 9 1;
#X connect 7 0 16 0;
#X connect 8 0 6 0;
#X connect 9 0 8 0;
#X connect 10 0 3 1;
#X connect 10 0 4 1;
#X connect 10 0 15 0;
#X connect 11 0 2 0;
#X connect 12 0 17 0;
#X connect 14 0 7 0;
#X connect 14 0 18 0;
#X connect 17 0 19 0;
#X connect 17 1 7 0;
#X connect 17 2 1 0;
#X connect 17 3 13 0;
#X connect 18 0 10 0;
#X connect 19 0 18 0;
