#N canvas 454 485 330 206 12;
#X obj 106 77 bng 15 250 50 0 empty empty (re)set 17 7 0 10 #fcfcfc #000000 #000000;
#X obj 25 102 adc-min-max~;
#X floatatom 25 128 5 0 0 0 - - - 0;
#X floatatom 106 129 5 0 0 0 - - - 0;
#X obj 25 74 adc~ 1;
#X text 22 169 (c) 2019 Achim Bornhoeft;
#X text 22 26 [adc-min-max~] measures overall min and max levels of the incoming audio signal, f 42;
#X connect 0 0 1 1;
#X connect 1 0 2 0;
#X connect 1 1 3 0;
#X connect 4 0 1 0;
