#N canvas 1159 477 534 480 12;
#X obj 92 425 hsl 128 15 0 1 0 0 empty empty empty -2 -8 0 10 #fcfcfc #000000 #000000 0 1;
#X obj 111 365 metro 10;
#X obj 112 340 tgl 15 0 empty metro-tog empty 17 7 0 10 #fcfcfc #000000 #000000 0 1;
#X obj 89 398 snapshot~;
#X msg 110 136 1000;
#X msg 148 134 5000;
#X msg 188 135 2000;
#X msg 89 77 5000 20 80 1;
#X msg 101 105 5000 10 90;
#X text 179 77 duration \, attack % \, release % \, duration factor;
#X obj 269 127 loadbang;
#X msg 154 227 80 20;
#X msg 199 227 10 90;
#X msg 180 274 0.2;
#X msg 222 274 2;
#X text 243 231 attack % \, release %;
#X text 247 275 duration factor;
#X msg 269 157 \; pd dsp 1 \; metro-tog 1 \;;
#X obj 89 315 arenv~;
#X text 322 419 (c) 2018 Achim Bornhoeft;
#X text 85 32 a(ttack) r(elease) env(elope);
#X connect 1 0 3 0;
#X connect 2 0 1 0;
#X connect 3 0 0 0;
#X connect 4 0 18 0;
#X connect 5 0 18 0;
#X connect 6 0 18 0;
#X connect 7 0 18 0;
#X connect 8 0 18 0;
#X connect 10 0 17 0;
#X connect 11 0 18 1;
#X connect 12 0 18 1;
#X connect 13 0 18 2;
#X connect 14 0 18 2;
#X connect 18 0 3 0;
