#N canvas 1130 557 257 462 10;
#X obj 63 260 *;
#X obj 96 260 *;
#X obj 107 343 pack;
#X msg 107 370 0 \, 1 \$1 \, 0 \$2 \$1;
#X obj 107 395 vline~;
#X obj 107 310 *;
#X obj 143 308 *;
#X obj 30 51 unpack f f f f;
#X obj 30 78 / 100;
#X obj 124 50 unpack;
#X obj 30 104 t f f;
#X obj 151 267 t f f;
#X obj 151 244 f 1;
#X obj 107 425 outlet~;
#X obj 124 25 inlet;
#X obj 30 23 inlet;
#X obj 166 25 inlet;
#X obj 165 189 t b f;
#X connect 0 0 5 0;
#X connect 1 0 6 0;
#X connect 2 0 3 0;
#X connect 3 0 4 0;
#X connect 4 0 13 0;
#X connect 5 0 2 0;
#X connect 6 0 2 1;
#X connect 7 0 8 0;
#X connect 7 1 0 1;
#X connect 7 2 1 1;
#X connect 7 3 12 0;
#X connect 8 0 10 0;
#X connect 9 0 0 1;
#X connect 9 1 1 1;
#X connect 10 0 0 0;
#X connect 10 1 1 0;
#X connect 11 0 5 1;
#X connect 11 1 6 1;
#X connect 12 0 11 0;
#X connect 14 0 9 0;
#X connect 15 0 7 0;
#X connect 16 0 17 0;
#X connect 17 0 12 0;
#X connect 17 1 12 1;
