#N canvas 595 245 360 656 12;
#X obj 31 447 line;
#X obj 31 503 s mute;
#X floatatom 31 471 5 0 0 0 - - - 0;
#X msg 111 455 \; pd dsp \$1 \;;
#X obj 31 317 t f f;
#X floatatom 111 429 5 0 0 0 - - - 0;
#X obj 94 209 == 0;
#X obj 162 210 == 1;
#X obj 89 291 t b b;
#X obj 33 120 tgl 19 0 empty empty empty 0 -10 0 12 #fcfcfc #000000 #000000 0 1;
#X obj 33 143 t f f;
#X obj 31 401 pack f f;
#X msg 89 319 150;
#X obj 158 293 t b b;
#X obj 89 266 spigot;
#X obj 93 234 t b f;
#X obj 158 268 spigot;
#X obj 162 236 t b f;
#X msg 121 319 500;
#X msg 158 319 300;
#X msg 190 320 10;
#X obj 111 401 pipe;
#X text 95 131 ON: first dsp on then fader up \; OFF: first fader down then dsp off;
#X obj 33 95 r audio-on-off;
#X obj 30 536 r mute;
#X obj 35 37 tgl 30 0 audio-on-off dummy Audio\ On/Off 0 -10 0 12 #c6ffc7 #000000 #000000 0 1;
#X obj 33 581 hsl 162 19 0 1 0 0 empty empty output\ for\ fader\ mutes 5 -10 0 12 #fcfcfc #000000 #000000 0 1;
#X text 88 44 Toggle for Audio on/off;
#X connect 0 0 2 0;
#X connect 2 0 1 0;
#X connect 4 0 11 0;
#X connect 4 1 21 0;
#X connect 5 0 3 0;
#X connect 6 0 15 0;
#X connect 7 0 17 0;
#X connect 8 0 12 0;
#X connect 8 1 18 0;
#X connect 9 0 10 0;
#X connect 10 0 4 0;
#X connect 10 1 6 0;
#X connect 10 1 7 0;
#X connect 11 0 0 0;
#X connect 12 0 11 1;
#X connect 13 0 19 0;
#X connect 13 1 20 0;
#X connect 14 0 8 0;
#X connect 15 0 14 0;
#X connect 15 1 14 1;
#X connect 16 0 13 0;
#X connect 17 0 16 0;
#X connect 17 1 16 1;
#X connect 18 0 21 1;
#X connect 19 0 11 1;
#X connect 20 0 21 1;
#X connect 21 0 5 0;
#X connect 23 0 9 0;
#X connect 24 0 26 0;
