#N canvas 324 349 282 452 12;
#X obj 16 173 f;
#X obj 53 174 + 1;
#X obj 83 226 del 1000, f 9;
#X obj 51 200 t f b;
#X obj 86 174 mod;
#X msg 34 142 0;
#X floatatom 51 249 5 0 0 0 - - - 0;
#X obj 130 317 ==;
#X msg 145 250 stop;
#X floatatom 148 287 5 0 0 0 - - - 0;
#X obj 130 343 sel 1;
#X obj 129 370 bng 19 250 50 0 empty empty empty 0 -10 0 12 #fcfcfc #000000 #000000;
#X obj 146 92 inlet;
#X obj 143 201 f \$2;
#X obj 105 91 inlet;
#X obj 105 139 f \$1;
#X obj 71 398 outlet;
#X obj 16 93 inlet;
#X obj 129 398 outlet;
#X obj 191 92 loadbang;
#X obj 67 67 bng 19 250 50 0 empty empty empty 0 -10 0 12 #fcfcfc #000000 #000000;
#X obj 22 326 t b f;
#X obj 14 397 outlet;
#X connect 0 0 1 0;
#X connect 1 0 4 0;
#X connect 1 0 3 0;
#X connect 2 0 0 0;
#X connect 3 0 6 0;
#X connect 3 1 2 0;
#X connect 4 0 0 1;
#X connect 5 0 0 1;
#X connect 6 0 7 0;
#X connect 6 0 21 0;
#X connect 7 0 10 0;
#X connect 8 0 2 0;
#X connect 9 0 7 1;
#X connect 10 0 11 0;
#X connect 11 0 8 0;
#X connect 11 0 5 0;
#X connect 11 0 18 0;
#X connect 12 0 13 0;
#X connect 13 0 2 1;
#X connect 14 0 15 0;
#X connect 15 0 4 1;
#X connect 15 0 9 0;
#X connect 17 0 0 0;
#X connect 19 0 13 0;
#X connect 19 0 15 0;
#X connect 20 0 0 0;
#X connect 21 0 22 0;
#X connect 21 1 16 0;
