#N canvas 390 512 425 264 12;
#X obj 92 107 bangs 5 500;
#X obj 92 83 bng 19 250 50 0 empty empty empty 0 -10 0 12 #fcfcfc #000000 #000000;
#X obj 166 135 bng 19 250 50 0 empty empty Done! 25 10 0 12 #fcfcfc #000000 #000000;
#X floatatom 129 169 5 0 0 1 Count - - 0;
#X obj 92 138 bng 19 250 50 0 empty empty empty 0 -10 0 12 #fcfcfc #000000 #000000;
#X obj 260 87 bng 19 250 50 0 empty empty empty 0 -10 0 12 #fcfcfc #000000 #000000;
#X obj 341 139 bng 19 250 50 0 empty empty Done! 25 10 0 12 #fcfcfc #000000 #000000;
#X floatatom 300 172 5 0 0 1 Count - - 0;
#X obj 260 141 bng 19 250 50 0 empty empty empty 0 -10 0 12 #fcfcfc #000000 #000000;
#X obj 260 111 bangs 20 100;
#X text 93 34 Counted number of bangs in msecs;
#X text 84 228 Achim Bornhoeft (c) 2025;
#X connect 0 0 4 0;
#X connect 0 1 3 0;
#X connect 0 2 2 0;
#X connect 1 0 0 0;
#X connect 5 0 9 0;
#X connect 9 0 8 0;
#X connect 9 1 7 0;
#X connect 9 2 6 0;
