#N canvas 394 539 426 280 12;
#X obj 39 176 dac~;
#X floatatom 192 148 5 0 0 0 - - - 0;
#X obj 195 190 hsl 128 15 0 3 0 0 empty empty amplification -2 -8 0 10 #fcfcfc #000000 #000000 0 1;
#N canvas 802 699 314 394 sigtest 0;
#X obj 64 83 /~ 2;
#X floatatom 64 173 5 0 0 0 - - - 0;
#X obj 64 205 osc~;
#X obj 64 325 outlet~;
#X obj 64 28 osc~ 0.1;
#X obj 65 113 *~ 2000;
#X obj 65 53 +~ 1.05;
#X obj 145 75 loadbang;
#X obj 144 103 metro 5;
#X obj 64 145 snapshot~;
#X obj 64 297 *~;
#X obj 82 227 inlet;
#X msg 114 281 \; pd dsp \$1;
#X obj 82 252 t f f;
#X connect 0 0 5 0;
#X connect 1 0 2 0;
#X connect 2 0 10 0;
#X connect 4 0 6 0;
#X connect 5 0 9 0;
#X connect 6 0 0 0;
#X connect 7 0 8 0;
#X connect 8 0 9 0;
#X connect 9 0 1 0;
#X connect 10 0 3 0;
#X connect 11 0 13 0;
#X connect 13 0 10 1;
#X connect 13 1 12 0;
#X restore 48 83 pd sigtest;
#X floatatom 120 155 7 0 0 3 frequency - - 0;
#X obj 48 120 bass-boost 100 10 0 3;
#X text 43 17 [bass-boost]: amplification according to frequency;
#X obj 48 54 tgl 19 0 empty empty empty 0 -10 0 12 #fcfcfc #000000 #000000 0 1;
#X text 34 237 (c) 20015 AChim Bornhoeft;
#X connect 1 0 2 0;
#X connect 3 0 5 0;
#X connect 5 0 0 0;
#X connect 5 0 0 1;
#X connect 5 1 4 0;
#X connect 5 2 1 0;
#X connect 7 0 3 0;
