#N canvas 739 372 347 398 10;
#X floatatom 96 76 0 0 0 0 - - - 0;
#X obj 97 151 mtof;
#X obj 97 119 line;
#X obj 33 286 *~;
#X floatatom 97 177 5 0 0 0 - - - 0;
#X obj 96 46 sigmund~ -hop 1024 -maxfreq 12000 note;
#N canvas 688 591 485 393 range 0;
#X obj 54 39 inlet;
#X obj 112 36 loadbang;
#X obj 54 99 - \$1;
#X obj 165 125 -;
#X obj 56 241 *;
#X obj 160 189 /;
#X obj 110 124 -;
#X obj 56 270 + \$3;
#X obj 56 342 outlet;
#X obj 163 158 t b f;
#X obj 112 63 list \$4 \$3 \$2 \$1;
#X obj 109 91 unpack 0 0 0 0;
#X obj 55 303 clip \$3 \$4;
#X connect 0 0 2 0;
#X connect 1 0 10 0;
#X connect 2 0 4 0;
#X connect 3 0 9 0;
#X connect 4 0 7 0;
#X connect 5 0 4 1;
#X connect 6 0 5 0;
#X connect 7 0 12 0;
#X connect 9 0 5 0;
#X connect 9 1 5 1;
#X connect 10 0 11 0;
#X connect 11 0 6 0;
#X connect 11 1 6 1;
#X connect 11 2 3 0;
#X connect 11 3 3 1;
#X connect 12 0 8 0;
#X restore 150 156 pd range;
#X floatatom 150 183 5 0 0 0 - - - 0;
#X obj 34 12 inlet~;
#X obj 33 319 outlet~;
#X obj 150 319 outlet;
#X msg 96 99 \$1 300;
#X obj 33 210 vcf~ 3;
#X obj 33 242 vcf~ 3;
#X obj 97 320 outlet;
#X text 36 364 (c) 20015 AChim Bornhoeft;
#X connect 0 0 11 0;
#X connect 1 0 4 0;
#X connect 2 0 1 0;
#X connect 2 0 6 0;
#X connect 3 0 9 0;
#X connect 4 0 12 1;
#X connect 4 0 13 1;
#X connect 4 0 14 0;
#X connect 5 0 0 0;
#X connect 6 0 7 0;
#X connect 7 0 3 1;
#X connect 7 0 10 0;
#X connect 8 0 5 0;
#X connect 8 0 12 0;
#X connect 11 0 2 0;
#X connect 12 0 13 0;
#X connect 13 0 3 0;
