#N canvas 708 702 428 480 12;
#X msg 86 103 400;
#X msg 75 74 400 500;
#X obj 149 214 print difference-tones;
#X obj 112 241 print sumtones;
#X obj 75 267 print combination-tones;
#X msg 112 136 600;
#X text 145 72 f1/f2;
#X text 126 102 f1;
#X text 149 137 f2;
#X text 194 163 order;
#N canvas 1067 755 1085 606 info 0;
#X text 50 68 "Eine zweite Tatsache ist ebenfalls nicht ohne weiteres vorauszusehen. Es bilden nicht nur beide Töne ihre Obertöne \, sondern es entstehen sozusagen Kreuzungsprodukte zwischen beiden Tönen. Es kombinieren sich also beide Töne zur Bildung neuer Töne. Diese heißen deshalb Kombinationstöne. Das mag ein Beispiel verdeutlichen. Haben wir etwa die große Terz 400:500 \, so bildet der Ton 400 seine Obertöne 800 \, 1200 \, 1600 \, 2000 \, usw. Entsprechend erzeugt der Ton 500 die. Obertöne 1000 \, 1500 \, 2000 \, 2500 \, usw. Aber außerdem entstehen noch Töne \, die sich durch Addieren oder Subtrahieren von Vielfachen der Grundtöne bilden. So ergibt 500-400 = 100 einen Ton 100 Da er als Differenz von 500 'und 400 entsteht \, nennt man ihn Differenzton - und zwar früher "von der ersten Ordnung" \, weil es der erste Ton ist \, den man als Differenz der Primärtöne erhalten kann. Wir wollen ihn aber "von zweiter Ordnung" nennen \, weil er \, wie ich im Anhang zeige \, aus der zweiten Potenz der nichtlinearen Funktion des Ohres entsteht. So gibt die Ordnung des Differenztones zugleich den Grad der Nichtlinearität der Ohrfunktion an. Ebenso ist man früher schon vom Begriff des - etwa - ersten Obertons zu dem des zweiten Teiltons übergegangen \, weil der erste Oberton die zweifache Schwingungszahl des Grundtons besitzt und bei der Teiltonangabe nunmehr Ordnung des Teiltons und Vielfaches des Grundtons zusammenfallen. Entsprechend bildet sich weiter durch Addition oder "Summierung" von 400 und 500 ein Ton 900 \, den man daher Summationston nennt. Wir geben ihm wieder die zweite Ordnung. Die Summationstöne und Differenztöne der ersten Ordnung fallen in unserer Bezeichnung mit den Primärtönen zusammen - ebenso wie der erste Teilton der Grundton selbst ist.;
#X text 55 27 Kombinationstöne (Summen- und Differenztöne);
#X text 569 19 Die Differenztöne will ich mit D bezeichnen \, die Summationstöne mit S. Weiter geben Indizes an \, welche Vielfache der Grundtöne zu ihrer Bildung benutzt wurden. Da hier einmal 400 mit einmal 500 addiert und subtrahiert \, also kombiniert wurde \, bezeichne ich 100 als D11 \, 900 als S11 \, beide zusammen als K11. Man erkennt an den Indizes sofort die Ordnungszahl der Töne: Beide Indizes addiert ( 1 + 1 ) ergeben 2 - das ist schon ihre Ordnungszahl. Auch die Bezeichnung der Primärtöne als Kombinationstöne lässt sich leicht durchführen. Der erste Grundton ist K10 \, er besteht ja nur aus sich selbst und der zweite ist nullmal zu ihm addiert oder von ihm subtrahiert. Ebenso lässt sich der zweite Grundton als K01 bezeichnen. Der Unterschied von Addition und· Subtraktion fällt also hier fort. Die Regel der Bestimmung der Ordnungszahl stimmt ebenfalls: 1 + 0 = 0 + 1 = 1 ergibt die erste Ordnung. Entsprechend bilden sich nun auch Kombinationstöne höherer Ordnung. In der dritten Ordnung bilden sich K21 und K12 \, also bei dem eben angeführten Beispiel 2 · 400 - 500 = 300 und 400 - 2 · 500 = 400 - 1000 = 600 (das Vorzeichen spielt keine Rolle) als D21 und D12 sowie 2 · 400 + 500 = 1300 und 400 + 2 · 500 = 1400 als S21 und S12. Die Summe der Indizes 1 + 2 ist 3 \, die Ordnungszahl. Ähnlich bildet sich in der 4 Ordnung K21 \, K22 und K13 \, in der 5 Ordnung K41 \, K32 \, K23 und K14 \, in der 6 Ordnung K51 \, K42 \, K33 \, K24 und K51 \, in der 7 Ordnung K61 \, K52 \, K43 \, K34 \, K25 und K16 und endlich in der 8 Ordnung K71 \, K62 \, K53 \, K44 \, K35 \, K26 und K17. Entsprechend lassen sich theoretisch beliebige Ordnungen bilden. In. diesen Ordnungen lassen sich auch wieder die betreffenden Obertöne mit einbeziehen. In der 3 Ordnung sind es K30 und K03 \, in der 4 Ordnung K40 und K04 \, usw. K60 wäre im angeführten Beispiel etwa 6 · 400 = 2400 und K06 6 · 500 = 3000.";
#X text 567 547 aus: Heinrich Husmann \, Vom Wesen der Konsonanz \, Heidelberg 1953 \, S.12-13;
#X restore 206 30 pd info;
#X floatatom 149 164 5 1 100 0 - - - 0;
#X obj 75 188 combtones 2;
#X text 35 429 (c) 2018 AChim Bornhoeft;
#X text 39 311 Order 1: Primärtöne;
#X text 34 375 (With instruments \, the square and cubic difference tones are audible at high volume)., f 50;
#X text 45 30 Combination tones;
#X text 39 329 Order 2: Squared combination tones (f1 +/- f2);
#X text 38 348 Ordnung 3: Cubic combination tones (2 x f1 +/- f2);
#X connect 0 0 12 0;
#X connect 1 0 12 0;
#X connect 5 0 12 1;
#X connect 11 0 12 2;
#X connect 12 0 4 0;
#X connect 12 1 3 0;
#X connect 12 2 2 0;
