#N canvas 593 64 429 819 10;
#X obj 92 79 inlet;
#X obj 92 104 unpack;
#X obj 105 269 until;
#X obj 105 195 f \$1;
#X obj 106 351 f;
#X floatatom 106 375 5 0 0 0 - - - 0;
#X obj 144 351 + 1;
#X obj 107 400 *;
#X floatatom 107 425 5 0 0 0 - - - 0;
#X msg 125 328 0;
#X floatatom 233 358 5 0 0 0 - - - 0;
#X obj 233 332 - 1;
#X obj 233 382 *;
#X obj 191 332 f;
#X obj 206 258 f \$1;
#X floatatom 232 404 5 0 0 0 - - - 0;
#X obj 107 515 +;
#X obj 258 162 t b f;
#X obj 105 294 t b b;
#X obj 256 81 inlet;
#X obj 216 485 -;
#X obj 216 518 abs;
#X obj 85 607 list;
#X obj 106 577 list;
#X obj 139 516 bng 15 250 50 0 empty empty empty 17 7 0 10 #fcfcfc #000000 #000000;
#X obj 192 606 list;
#X obj 215 578 list;
#X obj 258 517 bng 15 250 50 0 empty empty empty 17 7 0 10 #fcfcfc #000000 #000000;
#X obj 85 686 list;
#X obj 86 718 list trim;
#X obj 86 747 outlet comb;
#X obj 177 747 outlet sum;
#X obj 263 749 outlet dif;
#X obj 92 129 t b b f b;
#X obj 315 81 inlet;
#X obj 107 544 list append;
#X obj 216 545 list append;
#X obj 105 217 + 1;
#X obj 206 280 + 1;
#X obj 206 309 max 1;
#X obj 104 243 max 1;
#X text 43 18 The [until] bangs x (order + 1 - zero based) times. One counter counts up from 0 to order \, one down from order to 0 The according sumtones and difference tones are succesively calculated and collected in a list.;
#X text 79 787 (c) 2018 AChim Bornhoeft;
#X connect 0 0 1 0;
#X connect 1 0 33 0;
#X connect 1 1 17 0;
#X connect 2 0 18 0;
#X connect 3 0 37 0;
#X connect 4 0 5 0;
#X connect 4 0 6 0;
#X connect 5 0 7 0;
#X connect 6 0 4 1;
#X connect 7 0 8 0;
#X connect 8 0 16 0;
#X connect 8 0 20 0;
#X connect 9 0 4 1;
#X connect 10 0 12 0;
#X connect 11 0 10 0;
#X connect 11 0 13 1;
#X connect 12 0 15 0;
#X connect 13 0 11 0;
#X connect 14 0 38 0;
#X connect 15 0 16 1;
#X connect 15 0 20 1;
#X connect 16 0 35 0;
#X connect 17 0 14 0;
#X connect 17 0 27 0;
#X connect 17 1 12 1;
#X connect 18 0 4 0;
#X connect 18 1 13 0;
#X connect 19 0 17 0;
#X connect 20 0 21 0;
#X connect 21 0 36 0;
#X connect 22 0 28 0;
#X connect 22 0 31 0;
#X connect 23 0 22 1;
#X connect 23 0 35 1;
#X connect 24 0 23 0;
#X connect 25 0 32 0;
#X connect 25 0 28 1;
#X connect 26 0 25 1;
#X connect 26 0 36 1;
#X connect 27 0 26 0;
#X connect 28 0 29 0;
#X connect 29 0 30 0;
#X connect 33 0 25 0;
#X connect 33 0 22 0;
#X connect 33 1 3 0;
#X connect 33 2 7 1;
#X connect 33 3 9 0;
#X connect 33 3 24 0;
#X connect 34 0 14 1;
#X connect 34 0 3 1;
#X connect 35 0 23 0;
#X connect 36 0 26 0;
#X connect 37 0 40 0;
#X connect 38 0 39 0;
#X connect 39 0 13 1;
#X connect 40 0 2 0;
