#N canvas 867 583 444 230 12;
#X text 134 162 arg: curve between -1 and 1 (0 =linear);
#X obj 122 112 hsl 128 15 -1 1 0 0 empty empty empty -2 -8 0 10 #fcfcfc #000000 #000000 0 1;
#X floatatom 119 135 5 0 0 0 - - - 0;
#X obj 48 85 hsl 128 15 0 1 0 0 empty empty empty -2 -8 0 10 #fcfcfc #000000 #000000 0 1;
#X obj 48 191 hsl 128 15 0 1 0 0 empty empty empty -2 -8 0 10 #fcfcfc #000000 #000000 0 1;
#X obj 45 162 curved 0.15;
#X obj 46 29 curved;
#X text 99 29 convert linear to curved movement;
#X connect 1 0 2 0;
#X connect 2 0 5 1;
#X connect 3 0 5 0;
#X connect 5 0 4 0;
