#N canvas 527 552 267 208 12;
#X obj 42 97 mod 2;
#X obj 42 126 + 1;
#X obj 42 71 - 1;
#X obj 42 47 f \$1;
#X obj 42 21 loadbang;
#X obj 42 154 outlet;
#X connect 0 0 1 0;
#X connect 1 0 5 0;
#X connect 2 0 0 0;
#X connect 3 0 2 0;
#X connect 4 0 3 0;
