#N canvas 1043 886 534 242 12;
#X obj 57 57 dac-4to2 1;
#X obj 139 56 dac-4to2 2;
#X obj 220 56 dac-4to2 3;
#X obj 303 56 dac-4to2 4;
#X msg 57 110 set \$1;
#X floatatom 57 85 5 0 0 0 - - - 0;
#X obj 57 137 dac~ 1;
#X msg 139 108 set \$1;
#X floatatom 139 83 5 0 0 0 - - - 0;
#X obj 139 137 dac~ 1;
#X msg 220 105 set \$1;
#X floatatom 220 80 5 0 0 0 - - - 0;
#X obj 220 134 dac~ 1;
#X msg 303 106 set \$1;
#X floatatom 303 81 5 0 0 0 - - - 0;
#X obj 303 135 dac~ 1;
#X text 57 22 comment;
#X connect 0 0 5 0;
#X connect 1 0 8 0;
#X connect 2 0 11 0;
#X connect 3 0 14 0;
#X connect 4 0 6 0;
#X connect 5 0 4 0;
#X connect 7 0 9 0;
#X connect 8 0 7 0;
#X connect 10 0 12 0;
#X connect 11 0 10 0;
#X connect 13 0 15 0;
#X connect 14 0 13 0;
