#N canvas 1187 720 474 370 12;
#X obj 104 200 dcblock~;
#X obj 190 291 snapshot~;
#X floatatom 190 316 10 0 0 3 without\ offset - - 0;
#X obj 32 154 +~;
#X obj 32 92 sig~ 2;
#X obj 190 82 loadbang;
#X obj 77 289 snapshot~;
#X obj 190 115 tgl 15 0 empty empty empty 17 7 0 10 #fcfcfc #000000 #000000 0 1;
#X floatatom 77 315 10 0 0 3 with\ offset - - 0;
#X obj 50 123 osc~ 1;
#X obj 190 142 metro 200;
#X obj 37 33 dcblock~;
#X text 113 34 removes DC offsets - placed values around zero.;
#X connect 0 0 1 0;
#X connect 1 0 2 0;
#X connect 3 0 0 0;
#X connect 3 0 6 0;
#X connect 4 0 3 0;
#X connect 5 0 7 0;
#X connect 6 0 8 0;
#X connect 7 0 10 0;
#X connect 9 0 3 1;
#X connect 10 0 6 0;
#X connect 10 0 1 0;
