#N canvas 775 364 440 300 12;
#X floatatom 42 217 5 0 0 0 - - - 0;
#X obj 118 168 decimal 2;
#X floatatom 118 217 5 0 0 0 - - - 0;
#X obj 42 168 decimal 1;
#X msg 42 120 1.2398;
#X floatatom 192 217 5 0 0 0 - - - 0;
#X obj 192 168 decimal 3;
#X obj 42 92 loadbang;
#X floatatom 267 216 7 0 0 0 - - - 0;
#X obj 267 167 decimal;
#X obj 313 142 hradio 15 1 0 5 empty empty empty 0 -8 0 10 #fcfcfc #000000 #000000 0;
#X obj 42 46 decimal;
#X text 108 46 rounds values to the given decimal points;
#X text 38 258 (c) 2015 Achim Bornhoeft;
#X connect 1 0 2 0;
#X connect 3 0 0 0;
#X connect 4 0 3 0;
#X connect 4 0 1 0;
#X connect 4 0 6 0;
#X connect 4 0 9 0;
#X connect 6 0 5 0;
#X connect 7 0 4 0;
#X connect 9 0 8 0;
#X connect 10 0 9 1;
