#N canvas 615 25 220 181 10;
#X obj 45 51 t f f;
#X obj 48 87 -;
#X obj 45 25 inlet;
#X obj 48 111 outlet;
#X text 41 140 (c) 2017 AChim Bornhoeft;
#X connect 0 0 1 1;
#X connect 0 1 1 0;
#X connect 1 0 3 0;
#X connect 2 0 0 0;
