#N canvas 666 450 540 429 12;
#X text 45 360 (c) Achim Bornhoeft 2015;
#X msg 62 171 reset;
#X msg 124 197 5;
#X obj 48 236 each 5;
#X obj 43 29 each;
#X floatatom 48 262 5 0 0 0 - - - 0;
#X msg 89 197 3;
#X obj 48 78 tgl 15 0 empty empty empty 17 7 0 10 #fcfcfc #000000 #000000 0 1;
#X obj 48 120 random 10;
#X floatatom 48 144 5 0 0 0 - - - 0;
#X text 85 28 each n arg is passed;
#X obj 257 262 bng 15 250 50 0 empty empty empty 17 7 0 10 #fcfcfc #000000 #000000;
#X obj 257 285 print;
#X msg 280 193 reset;
#X obj 257 76 tgl 15 0 empty empty empty 17 7 0 10 #fcfcfc #000000 #000000 0 1;
#X obj 257 118 random 10;
#X floatatom 257 142 5 0 0 0 - - - 0;
#X obj 257 176 bng 15 250 50 0 empty empty empty 17 7 0 10 #fcfcfc #000000 #000000;
#X obj 257 234 each 4;
#X obj 48 291 print;
#X obj 257 96 metro 1000;
#X obj 48 98 metro 800;
#X connect 1 0 3 0;
#X connect 2 0 3 1;
#X connect 3 0 5 0;
#X connect 5 0 19 0;
#X connect 6 0 3 1;
#X connect 7 0 21 0;
#X connect 8 0 9 0;
#X connect 9 0 3 0;
#X connect 11 0 12 0;
#X connect 13 0 18 0;
#X connect 14 0 20 0;
#X connect 15 0 16 0;
#X connect 16 0 17 0;
#X connect 17 0 18 0;
#X connect 18 0 11 0;
#X connect 20 0 15 0;
#X connect 21 0 8 0;
