#N canvas 1525 324 405 264 12;
#X obj 39 224 dac~;
#X obj 116 152 hsl 128 15 0 1 0 0 empty set-fad empty -2 -6 0 8 #fcfcfc #000000 #000000 0 1;
#X obj 76 105 osc~ 220;
#X text 151 169 control input:;
#X text 152 186 0 = left input \, 1 = right input;
#X obj 76 128 *~ 0.2;
#X obj 39 78 *~ 0.1;
#X obj 39 51 osc~ 380;
#X obj 232 38 tgl 16 0 empty empty empty 0 -8 0 10 #fcfcfc #000000 #000000 0 1;
#X msg 232 64 \; pd dsp \$1 \; set-fad 0.5 \;;
#X obj 39 174 eq-pow-mix~;
#X text 33 21 Equal power mix;
#X connect 1 0 10 2;
#X connect 2 0 5 0;
#X connect 5 0 10 1;
#X connect 6 0 10 0;
#X connect 7 0 6 0;
#X connect 8 0 9 0;
#X connect 10 0 0 0;
#X connect 10 0 0 1;
