#N canvas 379 398 301 564 12;
#X obj 36 359 vline~;
#X obj 143 360 vline~;
#X obj 144 431 pow~ 2;
#X obj 36 430 pow~ 0.7;
#X msg 36 317 1 \$1 \, 0 0 \$1;
#X msg 143 318 1 0 \$1 \, 0 \$3 \$1;
#X msg 90 396 \$2;
#X msg 183 402 \$4;
#X obj 63 39 inlet;
#X obj 36 488 outlet~;
#X obj 65 159 f \$1;
#X obj 97 185 f \$2;
#X obj 127 207 f \$3;
#X obj 159 234 f \$4;
#X obj 65 264 pack f f f f;
#X obj 157 29 inlet;
#X obj 157 59 unpack f f f f;
#X obj 63 113 t b b b b;
#X text 31 526 (c) 2022 AChim Bornhoeft;
#X connect 0 0 3 0;
#X connect 1 0 2 0;
#X connect 2 0 9 0;
#X connect 3 0 9 0;
#X connect 4 0 0 0;
#X connect 5 0 1 0;
#X connect 6 0 3 1;
#X connect 7 0 2 1;
#X connect 8 0 17 0;
#X connect 10 0 14 0;
#X connect 11 0 14 1;
#X connect 12 0 14 2;
#X connect 13 0 14 3;
#X connect 14 0 4 0;
#X connect 14 0 5 0;
#X connect 14 0 6 0;
#X connect 14 0 7 0;
#X connect 15 0 16 0;
#X connect 16 0 10 1;
#X connect 16 1 11 1;
#X connect 16 2 12 1;
#X connect 16 3 13 1;
#X connect 17 0 10 0;
#X connect 17 1 11 0;
#X connect 17 2 12 0;
#X connect 17 3 13 0;
