#N canvas 438 312 545 699 12;
#X obj 156 520 random;
#X floatatom 318 274 5 0 0 0 - - - 0;
#X floatatom 323 406 6 0 0 0 - - - 0;
#X msg 318 341 10;
#X obj 196 446 *;
#X obj 171 557 /;
#X floatatom 130 635 15 0 0 0 - - - 0;
#X obj 318 301 t b f;
#X floatatom 222 287 5 0 0 0 - - - 0;
#X floatatom 148 376 5 0 0 0 - - - 0;
#X obj 222 315 t b f;
#X obj 206 393 abs;
#X floatatom 196 417 5 0 0 0 - - - 0;
#X obj 130 607 +;
#X obj 171 586 t b f;
#X obj 66 86 inlet;
#X obj 114 86 inlet;
#X obj 318 88 inlet;
#X obj 130 662 outlet;
#X obj 206 369 - 1;
#X obj 247 104 loadbang;
#X obj 323 377 pow 2;
#X obj 341 178 == 0;
#X obj 341 207 sel 0;
#X msg 376 239 2;
#X obj 196 470 + 1;
#X obj 418 91 inlet;
#X msg 410 407 seed \$1;
#X obj 153 184 == 0;
#X obj 153 211 sel 0;
#X obj 153 156 f \$1;
#X obj 152 260 f \$1;
#X msg 191 265 -1;
#X obj 186 234 t b b;
#X msg 222 262 1;
#X obj 66 114 bng 19 250 50 0 empty empty empty 0 -10 0 12 #fcfcfc #000000 #000000;
#X text 70 36 arg 1: min & max \, arg 2: numb of digits \, arg 3: seed;
#X obj 341 151 f \$2;
#X obj 418 153 f \$3;
#X text 300 576 (c) 2025 Achim Bornhoeft;
#X obj 150 335 * -1;
#X obj 150 297 t f f;
#X floatatom 196 494 12 0 0 0 - - - 0;
#X obj 366 68 bng 19 250 50 0 empty empty empty 0 -10 0 12 #fcfcfc #000000 #000000;
#X obj 336 240 f \$2;
#X connect 0 0 5 0;
#X connect 1 0 7 0;
#X connect 2 0 4 1;
#X connect 2 0 5 1;
#X connect 3 0 21 0;
#X connect 4 0 25 0;
#X connect 5 0 14 0;
#X connect 6 0 18 0;
#X connect 7 0 3 0;
#X connect 7 0 4 0;
#X connect 7 1 21 1;
#X connect 8 0 10 0;
#X connect 9 0 13 0;
#X connect 9 0 19 0;
#X connect 10 0 19 0;
#X connect 10 1 19 1;
#X connect 11 0 12 0;
#X connect 12 0 4 0;
#X connect 13 0 6 0;
#X connect 14 0 13 0;
#X connect 14 1 13 1;
#X connect 15 0 35 0;
#X connect 16 0 31 0;
#X connect 17 0 1 0;
#X connect 19 0 11 0;
#X connect 20 0 30 0;
#X connect 20 0 37 0;
#X connect 20 0 38 0;
#X connect 21 0 2 0;
#X connect 22 0 23 0;
#X connect 23 0 44 0;
#X connect 23 1 24 0;
#X connect 24 0 1 0;
#X connect 25 0 42 0;
#X connect 26 0 38 0;
#X connect 27 0 0 0;
#X connect 28 0 29 0;
#X connect 29 0 31 0;
#X connect 29 1 33 0;
#X connect 30 0 28 0;
#X connect 31 0 41 0;
#X connect 32 0 9 0;
#X connect 33 0 32 0;
#X connect 33 1 34 0;
#X connect 34 0 8 0;
#X connect 35 0 0 0;
#X connect 37 0 22 0;
#X connect 38 0 27 0;
#X connect 40 0 9 0;
#X connect 41 0 40 0;
#X connect 41 1 19 1;
#X connect 42 0 0 1;
#X connect 43 0 38 0;
#X connect 43 0 30 0;
#X connect 43 0 37 0;
#X connect 44 0 1 0;
