#N canvas 1052 305 629 665 12;
#X floatatom 66 142 5 0 0 0 - - - 0;
#X floatatom 60 264 7 0 0 0 - - - 0;
#X floatatom 386 488 8 0 0 0 - - - 0;
#X obj 399 397 unpack f f f;
#X msg 399 337 0 2 4;
#X obj 498 108 tgl 15 0 empty empty empty 17 7 0 10 #fcfcfc #000000 #000000 0 1;
#X obj 498 82 loadbang;
#X obj 66 85 r metr;
#X obj 498 158 s metr;
#X obj 60 207 r metr;
#X obj 340 398 r metr;
#X obj 399 310 loadbang;
#X text 132 116 Default between 0 and 0.99 (with 2 digits);
#X msg 409 368 10 20 1;
#X obj 60 313 bng 15 250 50 0 empty empty empty 17 7 0 10 #fcfcfc #000000 #000000;
#X obj 84 313 bng 15 250 50 0 empty empty empty 17 7 0 10 #fcfcfc #000000 #000000;
#X obj 109 313 bng 15 250 50 0 empty empty empty 17 7 0 10 #fcfcfc #000000 #000000;
#X obj 498 131 metro 500;
#X text 197 235 arg 1: min \, arg 2: max \, arg 3: numb of digits \, arg 4: seed;
#X obj 60 286 sel 2 3 4, f 11;
#X obj 169 209 bng 15 250 50 0 empty empty empty 17 7 0 10 #fcfcfc #000000 #000000;
#X text 211 203 bang seed;
#X msg 59 350 20;
#X obj 59 413 until;
#N canvas 393 560 220 265 show 0;
#X obj 44 21 inlet;
#X obj 43 143 list trim;
#X obj 44 112 list prepend;
#X msg 100 171 set;
#X obj 99 22 inlet;
#X obj 43 224 outlet;
#X obj 100 48 t b b;
#X msg 137 77 add2;
#X connect 0 0 2 0;
#X connect 1 0 5 0;
#X connect 2 0 1 0;
#X connect 3 0 5 0;
#X connect 4 0 6 0;
#X connect 6 0 3 0;
#X connect 6 1 7 0;
#X connect 7 0 2 1;
#X restore 59 480 pd show;
#X msg 59 547 0.65 3.15 5.88 0.71 1.18 4.14 7.73 3.99 0.23 8.64 9.57 9.32 9.03 6.62 9.78 3.35 9.97 8.87 2.88 9.75;
#X obj 59 379 t f b;
#X obj 59 508 t b a;
#N canvas 0 22 588 465 list-minmax 0;
#X obj 57 140 route float;
#X obj 98 276 f;
#X obj 35 414 outlet;
#X obj 94 389 f;
#X obj 94 416 outlet;
#X obj 35 325 t b b;
#X obj 35 25 inlet;
#X obj 35 386 f;
#N canvas 0 22 450 300 once 0;
#X obj 110 75 inlet;
#X obj 105 187 spigot 1;
#X obj 110 104 t b f;
#X msg 125 151 0;
#X msg 165 99 1;
#X obj 165 63 inlet;
#X obj 102 219 outlet;
#X connect 0 0 2 0;
#X connect 1 0 6 0;
#X connect 2 0 3 0;
#X connect 2 1 1 0;
#X connect 3 0 1 1;
#X connect 4 0 1 1;
#X connect 5 0 4 0;
#X restore 189 203 pd once;
#X obj 214 277 f;
#X obj 173 277 max;
#X obj 57 276 min;
#X obj 57 170 t a a a;
#X obj 35 50 t b a b;
#X text 204 230 prime [min] and [max] with first item once;
#N canvas 0 22 533 407 drip 0;
#X obj 64 206 list split 1;
#X obj 64 123 until;
#X obj 64 181 list append;
#X obj 194 206 bang;
#X text 146 90 First store list \, then start the loop;
#X text 163 118 "until" bangs its output until told to stop by a "bang" to its right inlet.;
#X text 182 160 Store the remaining list.;
#X text 239 205 third outlet of "split" tells us to stop.;
#X obj 64 243 outlet;
#X obj 64 57 inlet;
#X text 237 44 From list-help.pd;
#X obj 143 243 outlet;
#X obj 64 86 t b a;
#X connect 0 0 8 0;
#X connect 0 1 2 1;
#X connect 0 2 3 0;
#X connect 0 2 11 0;
#X connect 1 0 2 0;
#X connect 2 0 0 0;
#X connect 3 0 1 1;
#X connect 9 0 12 0;
#X connect 12 0 1 0;
#X connect 12 1 2 1;
#X restore 57 116 pd drip;
#X connect 0 0 12 0;
#X connect 1 0 11 1;
#X connect 3 0 4 0;
#X connect 5 0 7 0;
#X connect 5 1 3 0;
#X connect 6 0 13 0;
#X connect 7 0 2 0;
#X connect 8 0 10 1;
#X connect 8 0 11 1;
#X connect 9 0 10 1;
#X connect 10 0 9 0;
#X connect 10 0 3 1;
#X connect 11 0 1 0;
#X connect 11 0 7 1;
#X connect 12 0 11 0;
#X connect 12 1 10 0;
#X connect 12 2 8 0;
#X connect 13 0 5 0;
#X connect 13 1 15 0;
#X connect 13 2 8 1;
#X connect 15 0 0 0;
#X restore 59 594 pd list-minmax;
#X floatatom 59 620 5 0 0 0 - - - 0;
#X floatatom 154 619 5 0 0 0 - - - 0;
#X text 258 617 (c) 2010/2018/2020 Achim Bornhoeft;
#X obj 386 458 frandom;
#X obj 60 235 frandom 2 4 1 12;
#X obj 66 114 frandom;
#X obj 59 446 frandom 0 10 2 17;
#X obj 175 422 bng 15 250 50 0 empty empty empty 17 7 0 10 #fcfcfc #000000 #000000;
#X text 62 29 [frandom]: Floating point random generator with setable min and max value and number of digits, f 49;
#X connect 1 0 19 0;
#X connect 3 0 32 1;
#X connect 3 1 32 2;
#X connect 3 2 32 3;
#X connect 4 0 3 0;
#X connect 5 0 17 0;
#X connect 6 0 5 0;
#X connect 7 0 34 0;
#X connect 9 0 33 0;
#X connect 10 0 32 0;
#X connect 11 0 4 0;
#X connect 13 0 3 0;
#X connect 17 0 8 0;
#X connect 19 0 14 0;
#X connect 19 1 15 0;
#X connect 19 2 16 0;
#X connect 20 0 33 4;
#X connect 22 0 26 0;
#X connect 23 0 35 0;
#X connect 24 0 27 0;
#X connect 25 0 28 0;
#X connect 26 0 23 0;
#X connect 26 1 24 1;
#X connect 27 0 25 0;
#X connect 27 1 25 0;
#X connect 28 0 29 0;
#X connect 28 1 30 0;
#X connect 32 0 2 0;
#X connect 33 0 1 0;
#X connect 34 0 0 0;
#X connect 35 0 24 0;
#X connect 36 0 35 4;
