#N canvas 1609 782 195 193 10;
#X obj 26 26 inlet;
#X obj 26 106 /;
#X obj 26 133 outlet;
#X text 22 165 (c) 2020 Achim Bornhoeft;
#X obj 26 49 t b f;
#X msg 26 77 1000;
#X connect 0 0 4 0;
#X connect 1 0 2 0;
#X connect 4 0 5 0;
#X connect 4 1 1 1;
#X connect 5 0 1 0;
