#N canvas 1076 168 313 266 12;
#X obj 49 45 tgl 15 0 empty empty empty 17 7 0 10 #fcfcfc #000000 #000000 0 1;
#X obj 49 65 metro 500;
#X obj 49 94 random 2000;
#X floatatom 49 142 5 0 0 0 - - - 0;
#X symbolatom 49 194 10 0 0 0 - - - 0;
#X text 43 13 convert frequencies to note names;
#X obj 49 121 + 50;
#X text 45 227 (c) 2022 AChim Bornhoeft;
#X obj 49 166 fton;
#X connect 0 0 1 0;
#X connect 1 0 2 0;
#X connect 2 0 6 0;
#X connect 3 0 8 0;
#X connect 6 0 3 0;
#X connect 8 0 4 0;
