#N canvas 1076 168 470 396 10;
#X floatatom 41 75 5 0 127 0 - - - 0;
#X obj 399 137 int;
#X msg 292 178 A;
#X msg 352 178 B;
#X msg 19 178 C;
#X msg 82 178 D;
#X msg 142 178 E;
#X obj 399 176 t b f;
#X symbolatom 184 334 10 0 0 0 - - - 0;
#X obj 184 288 pack s f;
#X obj 41 148 select 0 1 2 3 4 5 6 7 8 9 10 11;
#X obj 41 124 mod 12;
#X msg 170 178 F;
#X msg 234 178 G;
#X obj 399 115 / 12;
#X msg 52 178 C#;
#X msg 111 178 Eb;
#X msg 203 178 F#;
#X msg 263 178 G#;
#X msg 322 178 Bb;
#X obj 426 201 - 1;
#X obj 41 27 inlet;
#X obj 184 357 outlet;
#X obj 41 98 t f f;
#X text 80 73 <-- MIDI number;
#X text 258 332 <-- MIDI note name;
#X msg 184 311 symbol \$1\$2;
#X obj 41 48 ftom;
#X text 18 359 (c) 2022 AChim Bornhoeft;
#X connect 0 0 23 0;
#X connect 1 0 7 0;
#X connect 2 0 9 0;
#X connect 3 0 9 0;
#X connect 4 0 9 0;
#X connect 5 0 9 0;
#X connect 6 0 9 0;
#X connect 7 0 9 0;
#X connect 7 1 20 0;
#X connect 8 0 22 0;
#X connect 9 0 26 0;
#X connect 10 0 4 0;
#X connect 10 1 15 0;
#X connect 10 2 5 0;
#X connect 10 3 16 0;
#X connect 10 4 6 0;
#X connect 10 5 12 0;
#X connect 10 6 17 0;
#X connect 10 7 13 0;
#X connect 10 8 18 0;
#X connect 10 9 2 0;
#X connect 10 10 19 0;
#X connect 10 11 3 0;
#X connect 11 0 10 0;
#X connect 12 0 9 0;
#X connect 13 0 9 0;
#X connect 14 0 1 0;
#X connect 15 0 9 0;
#X connect 16 0 9 0;
#X connect 17 0 9 0;
#X connect 18 0 9 0;
#X connect 19 0 9 0;
#X connect 20 0 9 1;
#X connect 21 0 27 0;
#X connect 23 0 11 0;
#X connect 23 1 14 0;
#X connect 26 0 8 0;
#X connect 27 0 0 0;
