#N canvas 541 344 298 195 12;
#X obj 13 10 hsl 128 15 0 127 0 0 \$0-send-label \$0-receive-label 0 50 8 0 10 #fcfcfc #000000 #fc0400 0 1;
#X msg 110 89 label \$1;
#X obj 110 64 makefilename %i;
#X obj 110 36 r \$0-send-label;
#X obj 110 115 s \$0-receive-label;
#X text 30 151 (c) Achim Bornhoeft;
#X obj 10 36 outlet;
#X connect 0 0 6 0;
#X connect 1 0 4 0;
#X connect 2 0 1 0;
#X connect 3 0 2 0;
#X coords 0 -1 1 1 133 15 2 10 10;
