#N canvas 235 134 366 262 12;
#X floatatom 89 188 5 0 0 0 - - - 0;
#X msg 86 92 440;
#X msg 39 91 220;
#X msg 127 92 880;
#X obj 88 140 hz2semi;
#X obj 42 28 hz2semi;
#X text 109 25 transposition hz to semitones \; 440 Hz = no transposition;
#X text 16 227 (c) 2008 Achim Bornhoeft;
#X connect 1 0 4 0;
#X connect 2 0 4 0;
#X connect 3 0 4 0;
#X connect 4 0 0 0;
