#N canvas 288 174 470 341 12;
#X obj 138 179 tgl 15 0 empty empty empty 0 -6 0 8 #fcfcfc #000000 #000000 0 1;
#X obj 78 259 dac~;
#X obj 78 218 inswitch~;
#X obj 78 67 osc~ 220;
#X obj 108 125 osc~ 660;
#X msg 196 137 0 1000;
#X msg 207 161 1 2000;
#X obj 78 94 *~ 0.2;
#X obj 108 150 *~ 0.2;
#X text 73 28 switch between two audio inputs with toggle or line;
#X text 250 138 first input in 1000 msecs;
#X text 259 161 second input in 2000 msecs;
#X text 76 300 (c) 2006 Achim Bornhoeft;
#X connect 0 0 2 2;
#X connect 2 0 1 0;
#X connect 2 0 1 1;
#X connect 3 0 7 0;
#X connect 4 0 8 0;
#X connect 5 0 2 2;
#X connect 6 0 2 2;
#X connect 7 0 2 0;
#X connect 8 0 2 1;
