#N canvas 560 199 425 449 10;
#X obj 76 85 inlet~;
#X text 76 67 input1;
#X obj 106 289 *~;
#X obj 198 291 *~;
#X obj 152 323 +~;
#X obj 162 84 inlet~;
#X text 158 64 input2;
#X obj 152 350 outlet~;
#X obj 211 83 inlet;
#X text 211 64 toggle;
#X obj 213 232 line~;
#X obj 213 252 cos~;
#X obj 121 222 line~;
#X obj 121 245 cos~;
#X obj 121 198 pack;
#X obj 120 154 t f b;
#X obj 213 209 pack;
#X obj 213 185 - 0.25;
#X obj 211 157 t f b;
#X obj 211 128 / 4;
#X obj 211 106 line;
#X msg 147 176 5;
#X msg 263 186 5;
#X text 72 30 switch between two audio inputs with toggle or line;
#X text 73 404 (c) 2006 Achim Bornhoeft;
#X connect 0 0 2 0;
#X connect 2 0 4 0;
#X connect 3 0 4 1;
#X connect 4 0 7 0;
#X connect 5 0 3 0;
#X connect 8 0 20 0;
#X connect 10 0 11 0;
#X connect 11 0 3 1;
#X connect 12 0 13 0;
#X connect 13 0 2 1;
#X connect 14 0 12 0;
#X connect 15 0 14 0;
#X connect 15 1 21 0;
#X connect 16 0 10 0;
#X connect 17 0 16 0;
#X connect 18 0 17 0;
#X connect 18 1 22 0;
#X connect 19 0 15 0;
#X connect 19 0 18 0;
#X connect 20 0 19 0;
#X connect 21 0 14 1;
#X connect 22 0 16 1;
