#N canvas 168 74 328 268 12;
#X obj 101 136 inswitch;
#X obj 154 113 tgl 15 0 empty empty switch\ (0\ and\ 1) 17 7 0 10 #fcfcfc #000000 #000000 0 1;
#X floatatom 127 89 5 0 0 0 - - - 0;
#X floatatom 101 65 5 0 0 0 - - - 0;
#X floatatom 101 185 5 0 0 0 - - - 0;
#X text 24 20 switch between two inputs with toggle;
#X text 98 226 (c) 2006 Achim Bornhoeft;
#X connect 0 0 4 0;
#X connect 1 0 0 2;
#X connect 2 0 0 1;
#X connect 3 0 0 0;
