#N canvas 414 268 340 356 10;
#X text 81 64 input1;
#X text 126 64 input2;
#X obj 170 83 inlet;
#X text 170 64 toggle;
#X obj 82 82 inlet;
#X obj 126 82 inlet;
#X obj 82 236 spigot;
#X obj 136 189 spigot;
#X obj 199 162 - 1;
#X obj 199 187 abs;
#X obj 134 282 outlet;
#X obj 170 122 f 0;
#X obj 225 77 loadbang;
#X text 70 320 (c) 2006 Achim Bornhoeft;
#X text 80 23 switch between two inputs with toggle;
#X connect 2 0 11 0;
#X connect 4 0 6 0;
#X connect 5 0 7 0;
#X connect 6 0 10 0;
#X connect 7 0 10 0;
#X connect 8 0 9 0;
#X connect 9 0 6 1;
#X connect 11 0 8 0;
#X connect 11 0 7 1;
#X connect 12 0 11 0;
