#N canvas 714 519 331 334 10;
#X obj 28 63 key;
#X obj 62 85 inlet;
#X obj 29 239 spigot;
#X obj 29 264 outlet;
#X obj 62 137 sel 0 1;
#X msg 62 183 1;
#X msg 81 161 0;
#X obj 62 212 tgl 15 0 empty empty empty 17 7 0 10 #fcfcfc #000000 #000000 0 1;
#X obj 102 62 loadbang;
#X msg 102 85 0;
#X text 32 297 (c) 2016 AChim Bornhoeft;
#X text 24 27 [key] with tgl to lock any input from keyboard;
#X connect 0 0 2 0;
#X connect 1 0 4 0;
#X connect 2 0 3 0;
#X connect 4 0 5 0;
#X connect 4 1 6 0;
#X connect 5 0 7 0;
#X connect 6 0 7 0;
#X connect 7 0 2 1;
#X connect 8 0 9 0;
#X connect 9 0 4 0;
