#N canvas 1004 512 759 655 10;
#X obj 189 289 sel 1;
#X msg 251 236 0;
#X msg 83 319 1;
#X obj 83 296 sel 1;
#X obj 519 32 inlet;
#X obj 225 33 inlet;
#X obj 381 33 inlet;
#X obj 284 32 loadbang;
#X obj 352 367 sel 1;
#X msg 352 392 0;
#X msg 388 392 1;
#X obj 283 379 f 1;
#X obj 249 429 spigot;
#X obj 454 213 delay;
#X obj 248 456 t b b;
#X obj 275 485 outlet;
#X msg 452 254 1;
#X obj 26 146 outlet;
#X obj 82 37 inlet;
#X obj 82 72 f;
#X obj 167 374 spigot;
#X obj 568 32 inlet;
#X msg 149 237 0;
#X msg 189 312 1;
#X obj 249 381 bng 15 250 50 0 empty empty empty 17 7 0 10 #fcfcfc #000000 #000000;
#X obj 167 397 bng 15 250 50 0 empty empty empty 17 7 0 10 #fcfcfc #000000 #000000;
#X obj 189 238 spigot 1;
#X obj 83 238 spigot 0;
#X text 357 602 (c) Achim Bornhoeft 2009 / 2015;
#X obj 82 99 s \$1-klevel-r;
#X obj 80 148 r \$1-klevel-s;
#X obj 200 351 f \$5;
#X obj 519 100 f \$4;
#X obj 83 274 < \$3;
#X obj 381 97 f \$3;
#X obj 189 267 > \$2;
#X obj 225 73 f \$2;
#N canvas 126 632 252 180 guilabel 0;
#X msg 43 107 label \$1;
#X obj 43 26 inlet;
#X obj 43 132 outlet;
#N canvas 371 178 187 217 round 0;
#X msg 107 79 10;
#X obj 107 56 loadbang;
#X obj 27 84 * 1;
#X obj 27 19 inlet;
#X obj 68 131 / 1;
#X msg 68 109 1;
#X obj 27 109 + 0.5;
#X obj 27 134 div;
#X obj 27 181 outlet;
#X obj 27 157 * 1;
#X obj 107 102 pow 2;
#X obj 27 45 t f b;
#X connect 0 0 10 0;
#X connect 1 0 0 0;
#X connect 2 0 6 0;
#X connect 3 0 11 0;
#X connect 4 0 9 1;
#X connect 5 0 4 0;
#X connect 6 0 7 0;
#X connect 7 0 9 0;
#X connect 9 0 8 0;
#X connect 10 0 2 1;
#X connect 10 0 4 1;
#X connect 10 0 5 0;
#X connect 11 0 2 0;
#X connect 11 1 0 0;
#X restore 43 53 pd round;
#X obj 43 79 makefilename thres-high:%s;
#X connect 0 0 2 0;
#X connect 1 0 3 0;
#X connect 3 0 4 0;
#X connect 4 0 0 0;
#X restore 266 149 pd guilabel;
#X obj 225 125 s \$1-kthres-high-r;
#X obj 223 174 r \$1-kthres-high-s;
#N canvas 126 632 316 246 guilabel 0;
#X msg 43 107 label \$1;
#X obj 43 26 inlet;
#X obj 43 132 outlet;
#N canvas 371 178 187 217 round 0;
#X msg 107 79 10;
#X obj 107 56 loadbang;
#X obj 27 84 * 1;
#X obj 27 19 inlet;
#X obj 68 131 / 1;
#X msg 68 109 1;
#X obj 27 109 + 0.5;
#X obj 27 134 div;
#X obj 27 181 outlet;
#X obj 27 157 * 1;
#X obj 107 102 pow 2;
#X obj 27 45 t f b;
#X connect 0 0 10 0;
#X connect 1 0 0 0;
#X connect 2 0 6 0;
#X connect 3 0 11 0;
#X connect 4 0 9 1;
#X connect 5 0 4 0;
#X connect 6 0 7 0;
#X connect 7 0 9 0;
#X connect 9 0 8 0;
#X connect 10 0 2 1;
#X connect 10 0 4 1;
#X connect 10 0 5 0;
#X connect 11 0 2 0;
#X connect 11 1 0 0;
#X restore 43 53 pd round;
#X obj 43 79 makefilename thres-low:%s;
#X connect 0 0 2 0;
#X connect 1 0 3 0;
#X connect 3 0 4 0;
#X connect 4 0 0 0;
#X restore 415 151 pd guilabel;
#X obj 381 125 s \$1-kthres-low-r;
#X obj 379 174 r \$1-kthres-low-s;
#N canvas 126 632 299 202 guilabel 0;
#X msg 43 107 label \$1;
#X obj 43 26 inlet;
#X obj 43 132 outlet;
#N canvas 371 178 187 217 round 0;
#X msg 107 79 10;
#X obj 107 56 loadbang;
#X obj 27 84 * 1;
#X obj 27 19 inlet;
#X obj 68 131 / 1;
#X msg 68 109 1;
#X obj 27 109 + 0.5;
#X obj 27 134 div;
#X obj 27 181 outlet;
#X obj 27 157 * 1;
#X obj 107 102 pow 2;
#X obj 27 45 t f b;
#X connect 0 0 10 0;
#X connect 1 0 0 0;
#X connect 2 0 6 0;
#X connect 3 0 11 0;
#X connect 4 0 9 1;
#X connect 5 0 4 0;
#X connect 6 0 7 0;
#X connect 7 0 9 0;
#X connect 9 0 8 0;
#X connect 10 0 2 1;
#X connect 10 0 4 1;
#X connect 10 0 5 0;
#X connect 11 0 2 0;
#X connect 11 1 0 0;
#X restore 43 53 pd round;
#X obj 43 79 makefilename retrig-time:%s;
#X connect 0 0 2 0;
#X connect 1 0 3 0;
#X connect 3 0 4 0;
#X connect 4 0 0 0;
#X restore 544 151 pd guilabel;
#X obj 527 126 s \$1-kretrig-r;
#X obj 525 175 r \$1-kretrig-s;
#X floatatom 313 422 5 0 0 0 - - - 0;
#X obj 453 235 bng 15 250 50 0 empty empty empty 17 7 0 10 #fcfcfc #000000 #000000;
#N canvas 126 632 484 274 guilabel 0;
#X msg 43 107 label \$1;
#X obj 43 26 inlet;
#X obj 43 132 outlet;
#N canvas 371 178 187 217 round 0;
#X msg 107 79 10;
#X obj 107 56 loadbang;
#X obj 27 84 * 1;
#X obj 27 19 inlet;
#X obj 68 131 / 1;
#X msg 68 109 1;
#X obj 27 109 + 0.5;
#X obj 27 134 div;
#X obj 27 181 outlet;
#X obj 27 157 * 1;
#X obj 107 102 pow 2;
#X obj 27 45 t f b;
#X connect 0 0 10 0;
#X connect 1 0 0 0;
#X connect 2 0 6 0;
#X connect 3 0 11 0;
#X connect 4 0 9 1;
#X connect 5 0 4 0;
#X connect 6 0 7 0;
#X connect 7 0 9 0;
#X connect 9 0 8 0;
#X connect 10 0 2 1;
#X connect 10 0 4 1;
#X connect 10 0 5 0;
#X connect 11 0 2 0;
#X connect 11 1 0 0;
#X restore 43 53 pd round;
#X obj 43 79 makefilename trig-level:%s;
#X connect 0 0 2 0;
#X connect 1 0 3 0;
#X connect 3 0 4 0;
#X connect 4 0 0 0;
#X restore 95 124 pd guilabel;
#X obj 169 126 nbx 3 14 -1e+37 1e+37 0 0 \$1-klevel-s \$1-klevel-r trig-level:47.58 0 -8 0 10 #fcfcfc #000000 #000000 0 256;
#X obj 342 151 nbx 3 14 -1e+37 1e+37 0 0 \$1-kthres-high-s \$1-kthres-high-r thres-high:50 0 -8 0 10 #fcfcfc #000000 #000000 0 256;
#X obj 490 153 nbx 3 14 -1e+37 1e+37 0 0 \$1-kthres-low-s \$1-kthres-low-r thres-low:50 0 -8 0 10 #fcfcfc #000000 #000000 0 256;
#X obj 619 154 nbx 3 14 -1e+37 1e+37 0 0 \$1-kretrig-s \$1-kretrig-r retrig-time:200 0 -8 0 10 #fcfcfc #000000 #000000 0 256;
#X obj 450 315 cnv 15 180 90 empty empty empty 20 12 0 14 #f8f8f8 #404040 0;
#X obj 479 330 hsl 120 15 0 100 0 0 \$1-klevel-s \$1-klevel-r trig-level:47.58 20 8 0 8 #ffffff #000000 #000000 0 1;
#X obj 479 360 hsl 120 15 0 100 0 0 \$1-kthres-low-s \$1-kthres-low-r thres-low:50 20 8 0 8 #ffffff #fc0400 #000000 0 1;
#X obj 479 375 hsl 120 15 0 1000 0 0 \$1-kretrig-s \$1-kretrig-r retrig-time:200 20 8 0 8 #ffffff #00f8fc #000000 0 1;
#X obj 479 345 hsl 120 15 0 100 0 0 \$1-kthres-high-s \$1-kthres-high-r thres-high:50 20 8 0 8 #ffffff #00fc04 #000000 0 1;
#X obj 82 550 s \$0-konrad;
#X obj 172 551 namecanvas \$0-konrad;
#X obj 82 434 loadbang;
#X obj 82 456 f \$6;
#X floatatom 82 501 5 0 0 0 - - - 0;
#X obj 83 481 * 2;
#X obj 450 300 cnv 10 180 15 empty \$1-channel konrad\\\ \$1 50 8 0 11 #404040 #ffffff 0;
#X msg 82 525 donecanvasdialog 100 100 \$1 0 0 1 1 180 105 450 300 \, dirty 0;
#X connect 0 0 1 0;
#X connect 0 0 23 0;
#X connect 0 0 24 0;
#X connect 1 0 26 1;
#X connect 2 0 26 1;
#X connect 3 0 2 0;
#X connect 3 0 22 0;
#X connect 3 0 20 0;
#X connect 4 0 32 0;
#X connect 5 0 36 0;
#X connect 6 0 34 0;
#X connect 7 0 11 0;
#X connect 7 0 31 0;
#X connect 7 0 32 0;
#X connect 7 0 34 0;
#X connect 7 0 36 0;
#X connect 8 0 9 0;
#X connect 8 1 10 0;
#X connect 9 0 11 1;
#X connect 10 0 11 1;
#X connect 11 0 8 0;
#X connect 11 0 12 1;
#X connect 11 0 46 0;
#X connect 12 0 14 0;
#X connect 13 0 47 0;
#X connect 14 0 11 0;
#X connect 14 0 13 0;
#X connect 14 1 15 0;
#X connect 16 0 11 0;
#X connect 18 0 19 0;
#X connect 19 0 17 0;
#X connect 19 0 29 0;
#X connect 20 0 25 0;
#X connect 21 0 31 0;
#X connect 22 0 27 1;
#X connect 23 0 27 1;
#X connect 24 0 12 0;
#X connect 25 0 12 0;
#X connect 26 0 35 0;
#X connect 27 0 33 0;
#X connect 30 0 27 0;
#X connect 30 0 26 0;
#X connect 30 0 48 0;
#X connect 31 0 20 1;
#X connect 32 0 44 0;
#X connect 33 0 3 0;
#X connect 34 0 41 0;
#X connect 35 0 0 0;
#X connect 36 0 38 0;
#X connect 37 0 38 0;
#X connect 39 0 37 0;
#X connect 39 0 35 1;
#X connect 40 0 41 0;
#X connect 42 0 40 0;
#X connect 42 0 33 1;
#X connect 43 0 44 0;
#X connect 45 0 43 0;
#X connect 45 0 13 1;
#X connect 47 0 16 0;
#X connect 48 0 29 0;
#X connect 60 0 61 0;
#X connect 61 0 63 0;
#X connect 62 0 65 0;
#X connect 63 0 62 0;
#X connect 65 0 58 0;
#X coords 0 0 1 1 180 105 2 450 300;
