#N canvas 144 51 260 429 10;
#X obj 37 141 until;
#X obj 85 71 list append;
#X obj 36 193 list split 1;
#X obj 36 169 list append;
#X obj 133 271 +;
#X obj 162 271 f;
#X obj 148 247 0;
#X obj 105 220 t b b;
#X obj 118 296 f;
#X obj 86 97 t b b l;
#X obj 118 318 outlet;
#X obj 83 27 inlet;
#X obj 84 48 t b l;
#X text 37 355 (c) https://github.com/breedx2/pure-data/blob/main/abstractions/list-sum.pd, f 32;
#X connect 0 0 3 0;
#X connect 1 0 9 0;
#X connect 2 0 4 0;
#X connect 2 1 3 1;
#X connect 2 2 7 0;
#X connect 3 0 2 0;
#X connect 4 0 5 0;
#X connect 4 0 8 1;
#X connect 5 0 4 1;
#X connect 6 0 4 1;
#X connect 7 0 8 0;
#X connect 7 1 0 1;
#X connect 8 0 10 0;
#X connect 9 0 0 0;
#X connect 9 1 6 0;
#X connect 9 2 3 1;
#X connect 11 0 12 0;
#X connect 12 0 1 0;
#X connect 12 1 1 1;
