#N canvas 999 816 268 437 12;
#X floatatom 74 28 10 0 0 2 MM - - 0;
#X obj 74 51 t b f;
#X msg 74 75 60;
#X obj 74 99 /;
#X obj 74 123 * 4;
#X obj 74 147 * 32;
#X floatatom 74 171 5 0 0 0 - - - 0;
#X obj 106 232 div 60;
#X floatatom 69 395 5 0 0 0 minutes - - 0;
#X obj 125 296 * 60;
#X floatatom 125 323 5 0 0 0 - - - 0;
#X obj 106 370 -;
#X floatatom 106 395 5 0 0 1 seconds - - 0;
#X obj 74 197 t f f;
#X text 114 125 measure 4/4;
#X text 115 148 number of measures;
#X connect 0 0 1 0;
#X connect 1 0 2 0;
#X connect 1 1 3 1;
#X connect 2 0 3 0;
#X connect 3 0 4 0;
#X connect 4 0 5 0;
#X connect 5 0 6 0;
#X connect 6 0 13 0;
#X connect 7 0 8 0;
#X connect 7 0 9 0;
#X connect 9 0 10 0;
#X connect 10 0 11 1;
#X connect 11 0 12 0;
#X connect 13 0 11 0;
#X connect 13 1 7 0;
