#N canvas 960 973 410 254 12;
#X obj 39 81 tgl 19 0 empty empty empty 0 -10 0 12 #fcfcfc #000000 #000000 0 1;
#X obj 39 105 mod-inv;
#X obj 39 129 tgl 19 0 empty empty empty 0 -10 0 12 #fcfcfc #000000 #000000 0 1;
#X obj 132 66 bng 19 250 50 0 empty empty empty 0 -10 0 12 #fcfcfc #000000 #000000;
#X obj 132 145 mod-inv;
#X obj 132 90 f;
#X obj 165 89 + 1;
#X floatatom 132 121 5 0 0 0 - - - 0;
#X floatatom 132 169 5 0 0 0 - - - 0;
#X text 37 28 Toggle or counter inverse switch: 0->1 \, 1->0;
#X text 33 211 (c) 2024 Achim Bornhoeft;
#X connect 0 0 1 0;
#X connect 1 0 2 0;
#X connect 3 0 5 0;
#X connect 4 0 8 0;
#X connect 5 0 6 0;
#X connect 5 0 7 0;
#X connect 6 0 5 1;
#X connect 7 0 4 0;
