#N canvas 728 199 417 614 12;
#X obj 78 384 adc~;
#X obj 73 524 dac~;
#X obj 131 251 vsl 15 128 0 1 0 0 empty empty empty 0 -8 0 10 #fcfcfc #000000 #000000 0 1;
#X obj 185 249 vsl 15 128 1 10000 1 0 empty empty empty 0 -8 0 10 #fcfcfc #000000 #000000 0 1;
#X obj 238 249 vsl 15 128 0 1 0 0 empty empty empty 0 -8 0 10 #fcfcfc #000000 #000000 0 1;
#X obj 158 210 unpack f f f f;
#X floatatom 131 391 5 0 0 0 - - - 0;
#X floatatom 185 389 5 0 0 0 - - - 0;
#X obj 292 249 vsl 15 128 1 5000 1 0 empty empty empty 0 -8 0 10 #fcfcfc #000000 #000000 0 1;
#X floatatom 292 389 5 0 0 0 - - - 0;
#X floatatom 238 388 5 0 0 0 - - - 0;
#X msg 156 87 0.7 63 0.9 345;
#X text 262 86 Frösche;
#X text 63 566 (c) 2008 Achim Bornhoeft;
#X msg 180 109 0.85 28 0.15 71;
#X msg 192 133 0.85 50 0.5 116;
#X msg 199 158 0.95 71.84 0.25 28.36;
#X msg 206 182 0.25 311 0.7 65;
#N canvas 527 552 371 127 todo 0;
#X text 33 37 Todo: \; Feedback Reset with Cuelist backwards \; Set and with Shortcut;
#X restore 258 565 pd todo;
#X text 156 35 synthesis with modulated delay;
#X obj 78 480 moddel~ 0.7 63 0.9 345, f 31;
#X obj 88 36 moddel~;
#X connect 0 0 20 0;
#X connect 2 0 6 0;
#X connect 3 0 7 0;
#X connect 4 0 10 0;
#X connect 5 0 2 0;
#X connect 5 1 3 0;
#X connect 5 2 4 0;
#X connect 5 3 8 0;
#X connect 6 0 20 1;
#X connect 7 0 20 2;
#X connect 8 0 9 0;
#X connect 9 0 20 4;
#X connect 10 0 20 3;
#X connect 11 0 5 0;
#X connect 14 0 5 0;
#X connect 15 0 5 0;
#X connect 16 0 5 0;
#X connect 17 0 5 0;
#X connect 20 0 1 0;
#X connect 20 0 1 1;
