#N canvas 1074 262 452 533 10;
#X obj 173 407 *~;
#X obj 59 395 +~;
#X obj 234 343 +~;
#X obj 341 298 line~;
#X obj 234 255 osc~;
#X obj 234 289 *~;
#X obj 341 258 pack f 10;
#X obj 58 80 inlet~;
#X obj 231 83 inlet;
#X obj 341 82 inlet;
#X obj 173 83 inlet;
#X obj 234 449 outlet~;
#X obj 288 82 inlet;
#X obj 234 378 vd~ \$0-delayline 1000;
#X obj 60 450 delwrite~ \$0-delayline 3000;
#X text 57 57 singnal in;
#X text 169 49 feddback;
#X text 174 63 0 - 1;
#X text 238 62 osc;
#X text 285 51 osc-amp;
#X text 287 63 0 - 1;
#X text 340 63 delay-length;
#X text 58 483 (c) 2008 Achim Bornhoeft;
#X obj 173 200 f \$1;
#X obj 231 202 f \$2;
#X obj 288 202 f \$3;
#X obj 341 200 f \$4;
#X obj 236 132 loadbang;
#X connect 0 0 1 1;
#X connect 1 0 14 0;
#X connect 2 0 13 0;
#X connect 3 0 2 1;
#X connect 4 0 5 0;
#X connect 5 0 2 0;
#X connect 6 0 3 0;
#X connect 7 0 1 0;
#X connect 8 0 24 0;
#X connect 9 0 26 0;
#X connect 10 0 23 0;
#X connect 12 0 25 0;
#X connect 13 0 0 0;
#X connect 13 0 11 0;
#X connect 23 0 0 0;
#X connect 24 0 4 0;
#X connect 25 0 5 1;
#X connect 26 0 6 0;
#X connect 27 0 23 0;
#X connect 27 0 24 0;
#X connect 27 0 25 0;
#X connect 27 0 26 0;
