#N canvas 663 457 322 494 10;
#X floatatom 77 128 5 0 0 0 - - - 0;
#X obj 44 157 random;
#X obj 45 192 t b f b f;
#X obj 129 250 f;
#X obj 129 275 ==;
#X obj 46 316 f;
#X obj 47 349 sel 0;
#X obj 46 383 f;
#X obj 90 349 sel 1;
#X obj 76 81 loadbang;
#X obj 77 105 f \$1;
#X obj 44 57 inlet;
#X obj 46 413 outlet;
#X connect 0 0 3 1;
#X connect 0 0 1 1;
#X connect 1 0 2 0;
#X connect 2 0 5 0;
#X connect 2 1 3 1;
#X connect 2 2 3 0;
#X connect 2 3 7 1;
#X connect 2 3 4 1;
#X connect 3 0 4 0;
#X connect 4 0 5 1;
#X connect 5 0 6 0;
#X connect 5 0 8 0;
#X connect 6 0 7 0;
#X connect 7 0 12 0;
#X connect 8 0 1 0;
#X connect 9 0 10 0;
#X connect 10 0 0 0;
#X connect 11 0 1 0;
