#N canvas 632 273 586 354 12;
#X msg 38 63 20;
#X obj 38 114 until;
#X msg 160 148 set;
#X obj 38 88 t f b;
#X obj 38 148 norep_random 10;
#X msg 102 232 9 3 6 1 8 9 7 3 5 7 9 3 9 2 1 2 5 1 9 4;
#X msg 38 185 add2 \$1;
#X listbox 38 272 40 0 0 0 - - - 0;
#X text 323 242 message;
#X text 325 272 list;
#X text 36 26 random without direct repetitions;
#X text 38 312 (c) 2014 ACim Bornhoeft;
#X text 193 149 arg: setof events = rnd numbers between 0 - n-1;
#X connect 0 0 3 0;
#X connect 1 0 4 0;
#X connect 2 0 5 0;
#X connect 3 0 1 0;
#X connect 3 1 2 0;
#X connect 4 0 6 0;
#X connect 6 0 5 0;
#X connect 6 0 7 0;
