#N canvas 378 224 368 272 12;
#X msg 25 59 1 2 3 4 5;
#X floatatom 43 141 5 0 0 0 - - - 0;
#X floatatom 25 194 5 0 0 0 - - - 0;
#X msg 40 93 54 97 58 23 17 56;
#X obj 25 167 nth;
#X text 20 16 returns the [nth] element of an input list;
#X text 104 61 input list;
#X text 85 141 nth element 0-based;
#X text 27 233 (c) 2014 AChim Bornhoeft;
#X connect 0 0 4 0;
#X connect 1 0 4 1;
#X connect 3 0 4 0;
#X connect 4 0 2 0;
