#N canvas 603 356 333 294 10;
#X obj 50 62 list;
#X obj 50 145 list split;
#X obj 50 29 inlet;
#X obj 107 29 inlet;
#X obj 78 201 outlet;
#X obj 158 152 - 1;
#X obj 143 204 sel 1;
#X obj 143 177 >;
#X obj 143 230 print ERROR: list too short;
#X obj 158 126 list length;
#X text 45 262 (c) 2014 AChim Bornhoeft;
#X connect 0 0 1 0;
#X connect 0 0 9 0;
#X connect 1 1 4 0;
#X connect 2 0 0 0;
#X connect 3 0 7 0;
#X connect 3 0 1 1;
#X connect 5 0 7 1;
#X connect 6 0 8 0;
#X connect 7 0 6 0;
#X connect 9 0 5 0;
