#N canvas 168 74 348 344 10;
#X text 99 82 input1;
#X obj 209 98 inlet;
#X text 209 79 toggle;
#X obj 100 100 inlet;
#X obj 99 231 spigot;
#X obj 193 232 spigot;
#X obj 132 176 - 1;
#X obj 132 202 abs;
#X obj 194 295 outlet;
#X obj 209 135 f 0;
#X obj 262 92 loadbang;
#X obj 99 297 outlet;
#X text 97 44 switch between two inputs with toggle;
#X connect 1 0 9 0;
#X connect 3 0 4 0;
#X connect 3 0 5 0;
#X connect 4 0 11 0;
#X connect 5 0 8 0;
#X connect 6 0 7 0;
#X connect 7 0 4 1;
#X connect 9 0 6 0;
#X connect 9 0 5 1;
#X connect 10 0 9 0;
