#N canvas 168 74 364 266 12;
#X obj 96 105 tgl 15 0 empty empty empty 17 7 0 10 #fcfcfc #000000 #000000 0 1;
#X floatatom 96 179 5 0 0 0 - - - 0;
#X floatatom 36 60 5 0 0 0 - - - 0;
#X floatatom 36 180 5 0 0 0 - - - 0;
#X obj 36 131 outswitch;
#X text 27 23 switch between two audio outputs with toggle;
#X text 21 226 (c) 2008 AChim Bornhoeft;
#X connect 0 0 4 1;
#X connect 2 0 4 0;
#X connect 4 0 3 0;
#X connect 4 1 1 0;
