#N canvas 855 671 454 381 12;
#X text 97 55 signal;
#X obj 80 119 hsl 136 16 -12 12 0 0 empty empty empty -2 -8 0 10 #fcfcfc #000000 #000000 0 1;
#X floatatom 77 140 5 0 0 0 - - - 0;
#X obj 36 57 osc~ 200;
#X msg 77 94 0;
#X obj 266 62 tgl 16 0 empty empty empty 0 -8 0 10 #fcfcfc #000000 #000000 0 1;
#X msg 266 83 \; pd dsp \$1;
#X obj 36 171 pitchshift-tape~ 0 100 0;
#X text 27 340 (c) 2008 AChim Bornhoeft;
#X msg 34 258 browse https://valhalladsp.wordpress.com/tag/rotary-tape-head/;
#X obj 34 300 pdcontrol;
#X text 35 19 Rotating head pitchshifter;
#X text 120 141 transposition in semitones;
#X obj 36 218 dac~;
#X connect 1 0 2 0;
#X connect 2 0 7 1;
#X connect 3 0 7 0;
#X connect 4 0 1 0;
#X connect 5 0 6 0;
#X connect 7 0 13 0;
#X connect 7 0 13 1;
#X connect 9 0 10 0;
