#N canvas 1257 573 517 516 12;
#N canvas 947 28 549 794 data 0;
#X obj 112 494 nbx 3 15 0 12 0 0 empty empty empty -2 -6 0 10 #fcfcfc #000000 #000000 0 256;
#X floatatom 37 148 5 0 0 0 - - - 0;
#X obj 307 207 print line not in msgfile - key;
#X obj 115 589 f;
#X obj 169 586 +;
#X msg 323 388 1;
#X msg 378 389 -1;
#X obj 322 421 t b a;
#X obj 377 422 t b a;
#X floatatom 239 615 5 0 0 0 - - - 0;
#X obj 239 587 mod;
#X obj 257 551 r \$0-mod;
#X obj 112 517 t b f b;
#X obj 263 728 outlet;
#X obj 239 640 + 1;
#X msg 37 212 0;
#X msg 61 238 1;
#X msg 86 268 2;
#X msg 111 300 3;
#X msg 136 324 4;
#X msg 161 347 5;
#X msg 186 369 6;
#X msg 211 392 7;
#X msg 235 417 8;
#X msg 187 539 0;
#X text 285 56 + : Execute next line.;
#X text 285 77 - : Execute previous line.;
#X text 285 27 Navigation (keypad):;
#X obj 37 30 inlet;
#X text 296 98 1 - 9 = 1 - 9: Execute the corresponding line., f 26;
#X msg 273 390 0;
#X obj 272 417 t b f;
#X text 294 136 0: Go to the first line;
#X obj 37 177 sel 49 50 51 52 53 54 55 56 57 48 43 45;
#X obj 48 58 key;
#X obj 48 118 spigot;
#X obj 87 97 tgl 15 0 empty empty empty 17 7 0 10 #fcfcfc #000000 #000000 0 1;
#X text 87 31 [key] with tgl to lock any input from keyboard, f 23;
#X obj 87 69 r key-tglr;
#X floatatom 167 619 5 0 0 0 - - - 0;
#X obj 238 754 outlet;
#X obj 167 643 + 1;
#X obj 238 700 swap;
#X obj 238 664 t b f;
#X connect 0 0 12 0;
#X connect 1 0 33 0;
#X connect 3 0 4 0;
#X connect 4 0 10 0;
#X connect 4 0 39 0;
#X connect 5 0 7 0;
#X connect 6 0 8 0;
#X connect 7 0 3 0;
#X connect 7 1 4 1;
#X connect 8 0 3 0;
#X connect 8 1 4 1;
#X connect 9 0 14 0;
#X connect 10 0 3 1;
#X connect 10 0 9 0;
#X connect 11 0 10 1;
#X connect 12 0 3 0;
#X connect 12 1 3 1;
#X connect 12 2 24 0;
#X connect 14 0 43 0;
#X connect 15 0 0 0;
#X connect 16 0 0 0;
#X connect 17 0 0 0;
#X connect 18 0 0 0;
#X connect 19 0 0 0;
#X connect 20 0 0 0;
#X connect 21 0 0 0;
#X connect 22 0 0 0;
#X connect 23 0 0 0;
#X connect 24 0 4 1;
#X connect 28 0 1 0;
#X connect 30 0 31 0;
#X connect 31 0 3 0;
#X connect 31 1 3 1;
#X connect 33 0 15 0;
#X connect 33 1 16 0;
#X connect 33 2 17 0;
#X connect 33 3 18 0;
#X connect 33 4 19 0;
#X connect 33 5 20 0;
#X connect 33 6 21 0;
#X connect 33 7 22 0;
#X connect 33 8 23 0;
#X connect 33 9 30 0;
#X connect 33 10 5 0;
#X connect 33 11 6 0;
#X connect 33 12 2 0;
#X connect 34 0 35 0;
#X connect 35 0 1 0;
#X connect 36 0 35 1;
#X connect 38 0 36 0;
#X connect 39 0 41 0;
#X connect 41 0 42 0;
#X connect 42 0 40 0;
#X connect 42 1 13 0;
#X connect 43 0 42 0;
#X connect 43 1 42 1;
#X restore 34 125 pd data retrieval;
#X obj 48 433 print soundfile;
#X obj 0 0 cnv 15 250 20 empty \$0-sndfile 1-4.wav 15 12 0 12 #c6ffc7 #404040 0;
#X msg 45 338 label \$1;
#X obj 34 460 outlet;
#X text 32 34 Edit soundfiles.txt (\$1) to add/ change soundfiles;
#X text 164 126 see inside for getting data from textfile;
#X obj 63 279 textfile;
#X obj 63 243 until;
#X obj 34 308 list;
#X obj 34 178 t b f b;
#X text 87 150 line no. in textfile;
#X obj 114 214 symbol \$1;
#X msg 114 244 read \$1 cr \, rewind;
#X obj 34 397 list trim;
#X floatatom 34 151 5 0 0 0 - - - 0;
#X obj 45 368 s \$0-sndfile;
#X obj 34 68 loadbang;
#X msg 34 96 49;
#N canvas 590 191 350 377 no_of_lines_in_textfile 0;
#X obj 84 196 textfile;
#X obj 58 159 until;
#X obj 58 265 f;
#X obj 102 264 + 1;
#X msg 111 230 0;
#X floatatom 58 299 5 0 0 0 - - - 0;
#X obj 58 327 s \$0-mod;
#X obj 58 27 loadbang;
#X text 108 299 no. of lines in textfile;
#X obj 139 30 bng 15 250 50 0 empty empty empty 17 7 0 10 #fcfcfc #000000 #000000;
#X obj 58 63 symbol \$1;
#X obj 58 92 t b s b;
#X msg 84 124 read \$1 cr \, rewind;
#X connect 0 1 1 1;
#X connect 1 0 0 0;
#X connect 1 0 2 0;
#X connect 2 0 3 0;
#X connect 2 0 5 0;
#X connect 3 0 2 1;
#X connect 4 0 2 1;
#X connect 5 0 6 0;
#X connect 7 0 10 0;
#X connect 9 0 10 0;
#X connect 10 0 11 0;
#X connect 11 0 1 0;
#X connect 11 1 12 0;
#X connect 11 2 4 0;
#X connect 12 0 0 0;
#X restore 270 178 pd no_of_lines_in_textfile;
#X text 270 249 + : Execute next line.;
#X text 270 270 - : Execute previous line.;
#X text 270 220 Navigation (keypad):;
#X text 281 291 1 - 9 = 1 - 9: Execute the corresponding line., f 26;
#X text 272 331 0: Go to the first line;
#X obj 150 458 outlet;
#X text 257 459 (c) 2015 AChim Bornhoeft;
#X connect 0 0 15 0;
#X connect 0 1 25 0;
#X connect 3 0 16 0;
#X connect 7 0 9 1;
#X connect 7 1 8 1;
#X connect 8 0 7 0;
#X connect 9 0 14 0;
#X connect 9 0 3 0;
#X connect 10 0 9 0;
#X connect 10 1 8 0;
#X connect 10 2 12 0;
#X connect 12 0 13 0;
#X connect 13 0 7 0;
#X connect 14 0 1 0;
#X connect 14 0 4 0;
#X connect 15 0 10 0;
#X connect 17 0 18 0;
#X connect 18 0 0 0;
#X coords 0 -1 1 1 250 20 2 0 0;
