#N canvas 587 61 414 422 12;
#X floatatom 103 178 5 0 0 0 amplitude-> - - 0;
#X floatatom 138 128 5 0 0 1 <-phase - - 0;
#X floatatom 103 234 5 0 0 0 real-> - - 0;
#X floatatom 148 234 5 0 0 1 <-imaginary - - 0;
#X text 61 31 polar to cartesian conversion;
#X obj 107 329 hsl 128 15 -1 1 0 0 empty empty x-axis 133 7 1 10 #fcfcfc #000000 #000000 0 1;
#X obj 163 270 vsl 15 128 -1 1 0 0 empty empty y-axis -6 -9 1 10 #fcfcfc #000000 #000000 0 1;
#X obj 138 146 t b f;
#X obj 106 67 hsl 128 15 -1 1 0 0 empty empty amplitude 6 7 1 10 #fce0c0 #000000 #000000 0 1;
#X obj 141 99 hsl 128 15 0 6.28318 0 0 empty empty phase 7 7 1 10 #d8fcfc #000000 #000000 0 1;
#X text 273 97 (0 to 2pi);
#X obj 103 209 ptoc;
#X connect 0 0 11 0;
#X connect 1 0 7 0;
#X connect 2 0 6 0;
#X connect 3 0 5 0;
#X connect 7 0 0 0;
#X connect 7 1 11 1;
#X connect 8 0 0 0;
#X connect 9 0 1 0;
#X connect 11 0 2 0;
#X connect 11 1 3 0;
