#N canvas 551 433 293 250 10;
#X floatatom 113 79 5 0 0 0 amplitude-> - - 0;
#X floatatom 189 61 5 0 0 1 <-phase - - 0;
#X obj 189 96 t b f;
#X obj 112 164 *;
#X obj 139 124 cos;
#X obj 223 127 sin;
#X obj 211 167 *;
#X obj 113 42 inlet;
#X obj 189 33 inlet;
#X obj 112 208 outlet;
#X obj 211 208 outlet;
#X connect 0 0 3 0;
#X connect 0 0 6 0;
#X connect 1 0 2 0;
#X connect 1 0 4 0;
#X connect 1 0 5 0;
#X connect 2 0 0 0;
#X connect 3 0 9 0;
#X connect 4 0 3 1;
#X connect 5 0 6 1;
#X connect 6 0 10 0;
#X connect 7 0 0 0;
#X connect 8 0 1 0;
