#N canvas 1196 410 615 319 12;
#X obj 37 61 inlet;
#X obj 36 243 outlet~;
#X obj 36 161 osc~;
#X obj 36 206 expr~ if($v1 > $v2 \, 1 \, -1);
#X text 227 206 if wave > width value \, then 1 \, if else (lower) -1;
#X text 271 159 puls width: \; 0 = square / -0.99 = 99% up / 0.99 = 99% down;
#X obj 36 126 f \$1;
#X obj 57 92 loadbang;
#X obj 215 167 inlet~;
#X text 36 24 Pulse generator with width modulation (PWM);
#X text 35 276 (c) 2023 AChim Bornhoeft;
#X obj 170 127 f \$2;
#X obj 170 156 sig~;
#X connect 0 0 6 0;
#X connect 2 0 3 0;
#X connect 3 0 1 0;
#X connect 6 0 2 0;
#X connect 7 0 6 0;
#X connect 7 0 11 0;
#X connect 8 0 3 1;
#X connect 11 0 12 0;
#X connect 12 0 3 1;
