#N canvas 1286 788 295 186 10;
#X obj 52 73 phasor~;
#X obj 52 95 expr~ $v1 > $v2;
#X obj 52 37 inlet;
#X obj 52 130 outlet~;
#X obj 139 38 inlet~;
#X connect 0 0 1 0;
#X connect 1 0 3 0;
#X connect 2 0 0 0;
#X connect 4 0 1 1;
