#N canvas 1323 420 665 646 12;
#X obj 227 83 hsl 128 15 0 127 0 0 empty empty empty -2 -8 0 10 #fcfcfc #000000 #000000 0 1;
#X obj 224 105 mtof;
#X obj 224 322 pulse~;
#X text 97 492 A Square Wave has a value of "1" half the time \, and of "0" the other half of the time. This is called the Pulse Width of the Square Wave. Different Pulse Widths make a different sound. And when we use a Square Wave as an LFO (Low Frequency Oscillator) \, different Pulse Widths will have different effects on the sound it is modulating.;
#X floatatom 224 130 5 0 0 1 Hz - - 0;
#X text 42 600 (c) 2023 AChim Bornhoeft;
#X obj 224 417 dac~;
#X text 271 245 puls width: \; 0 = square / -0.99 = 99% up / 0.99 = 99% down, f 48;
#X obj 263 283 *~ 0.99;
#X obj 263 209 osc~ 0.25;
#X obj 54 84 hsl 128 15 0 127 0 0 empty empty empty -2 -8 0 10 #fcfcfc #000000 #000000 0 1;
#X obj 51 106 mtof;
#X floatatom 51 131 5 0 0 1 Hz - - 0;
#X obj 51 451 dac~;
#X obj 143 370 metro 100;
#X obj 143 345 tgl 15 0 empty empty draw_it 17 7 0 12 #fcfcfc #000000 #000000 0 1;
#X obj 430 38 tgl 19 0 empty empty empty 0 -10 0 12 #fcfcfc #000000 #000000 0 1;
#X msg 430 62 \; pd dsp \$1;
#X obj 51 375 *~;
#X obj 224 374 *~;
#X obj 143 453 tabwrite~ \$0-pulse;
#N canvas 0 22 454 304 (subpatch) 0;
#X array \$0-pulse 882 float 0;
#X coords 0 1 881 -1 200 130 1 0 0;
#X restore 364 321 graph;
#X text 364 459 ---- 0.02 seconds ----;
#X text 329 406 -0.5;
#X text 336 348 0.5;
#X text 342 441 -1;
#X text 351 314 1;
#X text 349 376 0;
#X obj 242 350 tgl 19 0 empty empty empty 0 -10 0 12 #fcfcfc #000000 #000000 0 0.3;
#X obj 69 349 tgl 19 0 empty empty empty 0 -10 0 12 #fcfcfc #000000 #000000 0 0.3;
#X obj 51 308 pulse~ 100 0.8;
#X text 50 32 Pulse generator with width modulation (PWM) args: frequency \, pulse width, f 44;
#X text 341 210 speed of width change (hz);
#X obj 266 167 hsl 128 15 0.05 20 0 0 empty empty empty -2 -8 0 10 #fcfcfc #000000 #000000 0 1;
#X floatatom 263 187 5 0 0 0 - - - 0;
#X connect 0 0 1 0;
#X connect 1 0 4 0;
#X connect 2 0 19 0;
#X connect 4 0 2 0;
#X connect 8 0 2 1;
#X connect 9 0 8 0;
#X connect 10 0 11 0;
#X connect 11 0 12 0;
#X connect 12 0 30 0;
#X connect 14 0 20 0;
#X connect 15 0 14 0;
#X connect 16 0 17 0;
#X connect 18 0 13 0;
#X connect 18 0 13 1;
#X connect 18 0 20 0;
#X connect 19 0 6 0;
#X connect 19 0 6 1;
#X connect 19 0 20 0;
#X connect 28 0 19 1;
#X connect 29 0 18 1;
#X connect 30 0 18 0;
#X connect 33 0 34 0;
#X connect 34 0 9 0;
