#N canvas 175 117 548 355 12;
#X obj 49 165 hsl 162 19 0 2 0 0 empty empty empty -2 -10 0 12 #fcfcfc #000000 #000000 0 1;
#X floatatom 47 189 5 0 0 0 - - - 0;
#X obj 50 259 hsl 162 19 0 2 0 0 empty empty empty -2 -10 0 12 #fcfcfc #000000 #000000 0 1;
#X obj 47 231 quant 0.4;
#X floatatom 48 283 5 0 0 0 - - - 0;
#X obj 311 164 hsl 162 19 0 2 0 0 empty empty empty -2 -10 0 12 #fcfcfc #000000 #000000 0 1;
#X floatatom 309 188 5 0 0 0 - - - 0;
#X obj 312 258 hsl 162 19 0 2 0 0 empty empty empty -2 -10 0 12 #fcfcfc #000000 #000000 0 1;
#X floatatom 310 282 5 0 0 0 - - - 0;
#X obj 309 230 quant 0.123;
#X msg 388 200 0.5;
#X msg 423 199 0.8;
#X text 48 50 quantize a number-stream (float) to nearest float \; creation arg: quant val \; 1st inlet: numbers \; 2nd inlet: lets you set new quant values;
#X connect 0 0 1 0;
#X connect 1 0 3 0;
#X connect 2 0 4 0;
#X connect 3 0 2 0;
#X connect 5 0 6 0;
#X connect 6 0 9 0;
#X connect 7 0 8 0;
#X connect 9 0 7 0;
#X connect 10 0 9 1;
#X connect 11 0 9 1;
