#N canvas 505 128 836 420 10;
#X obj 16 338 outlet;
#X obj 16 128 inlet;
#X text 86 364 (C) 2020 João Pais - jmmmpais@gmail.com;
#X obj 85 98 pdcontrol;
#X msg 85 78 args;
#X obj 152 138 unpack f f f f f;
#X obj 85 38 loadbang;
#X obj 85 118 route bang;
#X obj 152 78 list 0 127 0 1 1;
#X obj 85 58 t b b;
#X obj 16 278 expr if ((($f1-$f2) / ($f3-$f2) == 0) \, $f4 \, if ((($f1-$f2) / ($f3-$f2) > 0) \, $f4 + ($f5-$f4) * pow(($f1-$f2) / ($f3-$f2) \, $f6) \, $f4 + ($f5-$f4) * -1 * pow((-1*$f1+$f2) / ($f3-$f2) \, $f6)));
#X obj 87 238 inlet;
#X obj 158 238 inlet;
#X obj 230 238 inlet;
#X obj 301 238 inlet;
#X obj 373 238 inlet;
#X text 427 282 ARGUMENTS;
#X text 428 322 2) float - input high (default 127);
#X text 428 302 1) float - input low (default 0);
#X text 428 342 3) float - output low (default 0);
#X text 428 362 4) float - output high (default 1);
#X text 428 382 5) float - exponential factor (default 1 - linear);
#X text 427 42 INLETS;
#X text 449 82 bang - performs the scaling function on last received input;
#X text 428 62 0) float/list - value(s) to perform the scaling function on;
#X text 428 122 1) - sets the low end of the input range;
#X text 428 142 2) - sets the high end of the input range;
#X text 428 162 3) - sets the low end of the output range;
#X text 428 181 4) - sets the high end of the output range;
#X text 428 202 5) - sets the exponential factor;
#X text 427 232 OUTLETS;
#X text 428 252 float/list - the scaled values according to output range;
#X text 449 102 classic <f> - only modern mode is available;
#X text 11 8 [range] - maps an input range to an output range;
#X connect 1 0 10 0;
#X connect 3 0 7 0;
#X connect 4 0 3 0;
#X connect 5 0 10 1;
#X connect 5 1 10 2;
#X connect 5 2 10 3;
#X connect 5 3 10 4;
#X connect 5 4 10 5;
#X connect 6 0 9 0;
#X connect 7 1 5 0;
#X connect 8 0 5 0;
#X connect 9 0 4 0;
#X connect 9 1 8 0;
#X connect 10 0 0 0;
#X connect 11 0 10 1;
#X connect 12 0 10 2;
#X connect 13 0 10 3;
#X connect 14 0 10 4;
#X connect 15 0 10 5;
