#N canvas 0 25 287 180 12;
#X obj 108 88 tgl 15 0 empty empty empty 17 7 0 10 #fcfcfc #000000 #000000 0 1;
#X text 33 26 Reversed toggle: 0 -> 1 \, 1 -> 0;
#X obj 108 144 tgl 15 0 empty empty empty 17 7 0 10 #fcfcfc #000000 #000000 0 1;
#X obj 108 62 loadbang;
#X obj 108 116 revtgl;
#X connect 0 0 4 0;
#X connect 3 0 0 0;
#X connect 4 0 2 0;
