#N canvas 1332 908 388 356 12;
#X obj 70 57 r \$1-rnd-bang;
#X obj 158 130 r \$1-rnd-env;
#N canvas 1038 341 262 411 rnd-bang 0;
#X obj 63 40 inlet;
#X obj 47 303 metro;
#X obj 91 204 delay;
#X obj 48 247 f;
#X obj 91 174 t b f;
#X obj 47 278 tgl 15 0 empty empty empty 17 7 0 10 #fcfcfc #000000 #000000 0 1;
#X obj 63 108 unpack f f f f;
#X obj 112 278 random;
#X obj 112 303 +;
#X floatatom 112 329 5 0 0 0 - - - 0;
#X obj 47 330 bng 15 250 50 0 empty empty empty 17 7 0 10 #fcfcfc #000000 #000000;
#X obj 159 227 -;
#X floatatom 159 252 5 0 0 0 - - - 0;
#X obj 173 175 t b f;
#X obj 47 362 outlet;
#X obj 35 147 sel 0;
#X msg 35 179 0;
#X msg 79 70 0;
#X obj 101 362 s \$1-rnd-bang-out;
#X connect 0 0 6 0;
#X connect 1 0 7 0;
#X connect 1 0 10 0;
#X connect 2 0 3 0;
#X connect 3 0 5 0;
#X connect 4 0 2 0;
#X connect 4 1 2 1;
#X connect 5 0 1 0;
#X connect 6 0 3 1;
#X connect 6 0 15 0;
#X connect 6 1 4 0;
#X connect 6 2 8 1;
#X connect 6 2 13 0;
#X connect 6 3 11 0;
#X connect 7 0 8 0;
#X connect 8 0 9 0;
#X connect 9 0 1 1;
#X connect 10 0 14 0;
#X connect 10 0 18 0;
#X connect 11 0 12 0;
#X connect 12 0 7 1;
#X connect 13 0 11 0;
#X connect 13 1 11 1;
#X connect 15 0 16 0;
#X connect 16 0 3 0;
#X connect 17 0 6 0;
#X restore 24 130 pd rnd-bang;
#N canvas 1226 359 477 466 rnd-env 0;
#X obj 151 384 pack f f f f;
#X obj 151 410 outlet;
#X obj 142 20 inlet;
#X obj 164 187 -;
#X floatatom 163 210 5 0 0 0 - - - 0;
#X obj 255 188 -;
#X floatatom 254 211 5 0 0 0 - - - 0;
#X obj 239 137 t b f;
#X obj 162 142 t b f;
#X obj 106 310 +;
#X obj 107 264 random;
#X obj 154 92 unpack f f f f f f f f;
#X floatatom 122 287 5 0 0 0 - - - 0;
#X obj 250 308 +;
#X obj 251 262 random;
#X floatatom 266 285 5 0 0 0 - - - 0;
#X floatatom 180 330 5 0 0 0 - - - 0;
#X floatatom 106 332 5 0 0 0 - - - 0;
#X floatatom 250 330 5 0 0 0 - - - 0;
#X floatatom 310 332 5 0 0 0 - - - 0;
#X obj 27 54 bng 15 250 50 0 empty empty empty 17 7 0 10 #fcfcfc #000000 #000000;
#X obj 27 29 inlet;
#N canvas 150 175 484 638 frandom 0;
#X obj 124 431 random;
#X floatatom 291 212 5 0 0 0 - - - 0;
#X floatatom 296 344 5 0 0 0 - - - 0;
#X msg 291 279 10;
#X obj 169 384 *;
#X obj 139 468 /;
#X floatatom 103 573 15 0 0 0 - - - 0;
#X obj 291 239 t b f;
#X floatatom 172 215 5 0 0 0 - - - 0;
#X floatatom 112 216 5 0 0 0 - - - 0;
#X obj 172 243 t b f;
#X obj 141 310 abs;
#X floatatom 141 347 5 0 0 0 - - - 0;
#X obj 103 545 +;
#X obj 139 497 t b f;
#X obj 39 24 inlet;
#X obj 114 26 inlet;
#X obj 172 27 inlet;
#X obj 291 26 inlet;
#X obj 103 600 outlet;
#X obj 157 278 - 1;
#X obj 220 42 loadbang;
#X obj 296 315 pow 2;
#X obj 314 89 f \$3;
#X obj 126 95 f \$1;
#X obj 314 116 == 0;
#X obj 209 122 == 0;
#X obj 209 94 f \$2;
#X obj 209 149 sel 0;
#X msg 249 175 1;
#X obj 206 176 f \$2;
#X obj 314 145 sel 0;
#X obj 309 178 f \$3;
#X msg 349 177 2;
#X text 218 526 (c) 2010 Achim Bornhoeft;
#X obj 169 408 + 1;
#X obj 391 29 inlet;
#X msg 392 330 seed \$1;
#X obj 391 91 f \$4;
#X connect 0 0 5 0;
#X connect 1 0 7 0;
#X connect 2 0 4 1;
#X connect 2 0 5 1;
#X connect 3 0 22 0;
#X connect 4 0 35 0;
#X connect 5 0 14 0;
#X connect 6 0 19 0;
#X connect 7 0 3 0;
#X connect 7 0 4 0;
#X connect 7 1 22 1;
#X connect 8 0 10 0;
#X connect 9 0 13 0;
#X connect 9 0 20 0;
#X connect 10 0 20 0;
#X connect 10 1 20 1;
#X connect 11 0 12 0;
#X connect 12 0 4 0;
#X connect 13 0 6 0;
#X connect 14 0 13 0;
#X connect 14 1 13 1;
#X connect 15 0 0 0;
#X connect 16 0 9 0;
#X connect 17 0 8 0;
#X connect 18 0 1 0;
#X connect 20 0 11 0;
#X connect 21 0 23 0;
#X connect 21 0 24 0;
#X connect 21 0 27 0;
#X connect 21 0 38 0;
#X connect 22 0 2 0;
#X connect 23 0 25 0;
#X connect 24 0 9 0;
#X connect 25 0 31 0;
#X connect 26 0 28 0;
#X connect 27 0 26 0;
#X connect 28 0 30 0;
#X connect 28 1 29 0;
#X connect 29 0 8 0;
#X connect 30 0 8 0;
#X connect 31 0 32 0;
#X connect 31 1 33 0;
#X connect 32 0 1 0;
#X connect 33 0 1 0;
#X connect 35 0 0 1;
#X connect 36 0 38 0;
#X connect 37 0 0 0;
#X connect 38 0 37 0;
#X restore 171 263 pd frandom;
#N canvas 150 175 484 638 frandom 0;
#X obj 124 431 random;
#X floatatom 291 212 5 0 0 0 - - - 0;
#X floatatom 296 344 5 0 0 0 - - - 0;
#X msg 291 279 10;
#X obj 169 384 *;
#X obj 139 468 /;
#X floatatom 103 573 15 0 0 0 - - - 0;
#X obj 291 239 t b f;
#X floatatom 172 215 5 0 0 0 - - - 0;
#X floatatom 112 216 5 0 0 0 - - - 0;
#X obj 172 243 t b f;
#X obj 141 310 abs;
#X floatatom 141 347 5 0 0 0 - - - 0;
#X obj 103 545 +;
#X obj 139 497 t b f;
#X obj 39 24 inlet;
#X obj 114 26 inlet;
#X obj 172 27 inlet;
#X obj 291 26 inlet;
#X obj 103 600 outlet;
#X obj 157 278 - 1;
#X obj 220 42 loadbang;
#X obj 296 315 pow 2;
#X obj 314 89 f \$3;
#X obj 126 95 f \$1;
#X obj 314 116 == 0;
#X obj 209 122 == 0;
#X obj 209 94 f \$2;
#X obj 209 149 sel 0;
#X msg 249 175 1;
#X obj 206 176 f \$2;
#X obj 314 145 sel 0;
#X obj 309 178 f \$3;
#X msg 349 177 2;
#X text 218 526 (c) 2010 Achim Bornhoeft;
#X obj 169 408 + 1;
#X obj 391 29 inlet;
#X msg 392 330 seed \$1;
#X obj 391 91 f \$4;
#X connect 0 0 5 0;
#X connect 1 0 7 0;
#X connect 2 0 4 1;
#X connect 2 0 5 1;
#X connect 3 0 22 0;
#X connect 4 0 35 0;
#X connect 5 0 14 0;
#X connect 6 0 19 0;
#X connect 7 0 3 0;
#X connect 7 0 4 0;
#X connect 7 1 22 1;
#X connect 8 0 10 0;
#X connect 9 0 13 0;
#X connect 9 0 20 0;
#X connect 10 0 20 0;
#X connect 10 1 20 1;
#X connect 11 0 12 0;
#X connect 12 0 4 0;
#X connect 13 0 6 0;
#X connect 14 0 13 0;
#X connect 14 1 13 1;
#X connect 15 0 0 0;
#X connect 16 0 9 0;
#X connect 17 0 8 0;
#X connect 18 0 1 0;
#X connect 20 0 11 0;
#X connect 21 0 23 0;
#X connect 21 0 24 0;
#X connect 21 0 27 0;
#X connect 21 0 38 0;
#X connect 22 0 2 0;
#X connect 23 0 25 0;
#X connect 24 0 9 0;
#X connect 25 0 31 0;
#X connect 26 0 28 0;
#X connect 27 0 26 0;
#X connect 28 0 30 0;
#X connect 28 1 29 0;
#X connect 29 0 8 0;
#X connect 30 0 8 0;
#X connect 31 0 32 0;
#X connect 31 1 33 0;
#X connect 32 0 1 0;
#X connect 33 0 1 0;
#X connect 35 0 0 1;
#X connect 36 0 38 0;
#X connect 37 0 0 0;
#X connect 38 0 37 0;
#X restore 308 261 pd frandom;
#X connect 0 0 1 0;
#X connect 2 0 11 0;
#X connect 3 0 4 0;
#X connect 4 0 10 1;
#X connect 5 0 6 0;
#X connect 6 0 14 1;
#X connect 7 0 5 0;
#X connect 7 1 5 1;
#X connect 8 0 3 0;
#X connect 8 1 3 1;
#X connect 9 0 17 0;
#X connect 10 0 9 0;
#X connect 11 0 8 0;
#X connect 11 0 12 0;
#X connect 11 1 3 0;
#X connect 11 2 22 1;
#X connect 11 3 22 2;
#X connect 11 4 7 0;
#X connect 11 4 15 0;
#X connect 11 5 5 0;
#X connect 11 6 23 1;
#X connect 11 7 23 2;
#X connect 12 0 9 1;
#X connect 13 0 18 0;
#X connect 14 0 13 0;
#X connect 15 0 13 1;
#X connect 16 0 0 1;
#X connect 17 0 0 0;
#X connect 18 0 0 2;
#X connect 19 0 0 3;
#X connect 20 0 14 0;
#X connect 20 0 10 0;
#X connect 20 0 22 0;
#X connect 20 0 23 0;
#X connect 21 0 20 0;
#X connect 22 0 16 0;
#X connect 23 0 19 0;
#X restore 91 192 pd rnd-env;
#N canvas 179 204 302 538 expenv~ 0;
#X obj 36 359 vline~;
#X obj 143 360 vline~;
#X obj 144 431 pow~ 2;
#X obj 36 430 pow~ 0.7;
#X msg 36 317 1 \$1 \, 0 0 \$1;
#X msg 143 318 1 0 \$1 \, 0 \$3 \$1;
#X msg 90 396 \$2;
#X msg 183 402 \$4;
#X obj 63 39 inlet;
#X obj 36 488 outlet~;
#X obj 65 159 f \$1;
#X obj 97 185 f \$2;
#X obj 127 207 f \$3;
#X obj 159 234 f \$4;
#X obj 65 264 pack f f f f;
#X obj 157 29 inlet;
#X obj 157 59 unpack f f f f;
#X obj 63 113 t b b b b;
#X connect 0 0 3 0;
#X connect 1 0 2 0;
#X connect 2 0 9 0;
#X connect 3 0 9 0;
#X connect 4 0 0 0;
#X connect 5 0 1 0;
#X connect 6 0 3 1;
#X connect 7 0 2 1;
#X connect 8 0 17 0;
#X connect 10 0 14 0;
#X connect 11 0 14 1;
#X connect 12 0 14 2;
#X connect 13 0 14 3;
#X connect 14 0 4 0;
#X connect 14 0 5 0;
#X connect 14 0 6 0;
#X connect 14 0 7 0;
#X connect 15 0 16 0;
#X connect 16 0 10 1;
#X connect 16 1 11 1;
#X connect 16 2 12 1;
#X connect 16 3 13 1;
#X connect 17 0 10 0;
#X connect 17 1 11 0;
#X connect 17 2 12 0;
#X connect 17 3 13 0;
#X restore 24 242 pd expenv~;
#X obj 24 283 outlet~;
#X obj 24 154 t b b;
#X obj 24 57 inlet;
#X obj 115 130 inlet;
#X obj 24 188 bng 19 250 50 0 empty empty empty 0 -10 0 12 #fcfcfc #000000 #000000;
#X obj 106 283 outlet;
#X text 37 319 (c) 2022/2024 AChim Bornhoeft;
#X text 174 161 rnd-env args: \; attack time - low/high \; attack curve - low/high \; release time - low/high \; release curve - low/high \;;
#X text 138 253 all durations in milliseconds;
#X text 172 56 rnd bang args: \; on/off \; initial delay \; random duration high/low;
#X text 26 24 Random bang and envelope generator;
#X connect 0 0 2 0;
#X connect 1 0 3 1;
#X connect 2 0 6 0;
#X connect 3 0 4 1;
#X connect 4 0 5 0;
#X connect 6 0 9 0;
#X connect 6 1 3 0;
#X connect 7 0 2 0;
#X connect 8 0 3 1;
#X connect 9 0 4 0;
#X connect 9 0 10 0;
