#N canvas 1285 303 583 396 10;
#X text 228 199 Arguments:;
#X text 228 229 1 + 2: x-position low/high (0 - 200);
#X text 227 253 3 + 4: reach x-position low/high in msec;
#X text 226 334 9: delay between trigger x and y-position;
#X text 225 284 5 + 6: y-position low/high (0 - 200);
#X text 226 310 7 + 8: reach y-position low/high in msec;
#X text 223 358 10: switch only between 0 and 200 = full space range;
#X obj 44 224 hsl 128 15 0 200 0 0 empty empty empty -2 -8 0 10 #c6ffc7 #ff0400 #000000 0 1;
#X obj 176 225 vsl 15 128 0 200 0 0 empty empty empty 0 -9 0 10 #c6feff #ff0400 #000000 0 1;
#X msg 176 93 0 200 100 200 30 130 200 280 0 0;
#X msg 196 153 10 150 150 200 50 200 50 80 50 1;
#X text 37 27 Random movements for spatialisation;
#X obj 41 153 tgl 16 0 empty empty empty 0 -8 0 10 #fcfcfc #000000 #000000 0 1;
#X obj 41 174 metro 1000;
#X obj 176 61 loadbang;
#X msg 187 123 0 200 500 1000 0 200 500 1000 300 0;
#X obj 41 201 rnd-pos 1, f 23;
#X connect 9 0 16 1;
#X connect 10 0 16 1;
#X connect 12 0 13 0;
#X connect 13 0 16 0;
#X connect 14 0 9 0;
#X connect 15 0 16 1;
#X connect 16 0 7 0;
#X connect 16 1 8 0;
