#N canvas 968 729 432 431 10;
#X obj 26 40 inlet;
#X obj 51 325 metro;
#X obj 95 200 delay;
#X obj 52 269 f;
#X obj 95 170 t b f;
#X obj 51 300 tgl 15 0 empty empty empty 17 7 0 10 #fcfcfc #000000 #000000 0 1;
#X obj 67 104 unpack f f f f;
#X obj 116 300 random;
#X obj 116 325 +;
#X floatatom 116 351 5 0 0 0 - - - 0;
#X obj 51 352 bng 15 250 50 0 empty empty empty 17 7 0 10 #fcfcfc #000000 #000000;
#X obj 149 224 -;
#X floatatom 149 275 5 0 0 0 - - - 0;
#X obj 163 172 t b f;
#X text 175 39 arg: on/off \, initial delay \, rnd high/low;
#X obj 51 384 outlet;
#X obj 39 143 sel 0;
#X msg 39 175 0;
#X msg 67 39 1 1000 1000 3000;
#X msg 83 66 0;
#X obj 116 383 outlet;
#X obj 149 249 abs;
#X connect 0 0 6 0;
#X connect 1 0 7 0;
#X connect 1 0 10 0;
#X connect 2 0 3 0;
#X connect 3 0 5 0;
#X connect 4 0 2 0;
#X connect 4 1 2 1;
#X connect 5 0 1 0;
#X connect 6 0 3 1;
#X connect 6 0 16 0;
#X connect 6 1 4 0;
#X connect 6 2 8 1;
#X connect 6 2 13 0;
#X connect 6 3 11 0;
#X connect 7 0 8 0;
#X connect 8 0 9 0;
#X connect 9 0 1 1;
#X connect 9 0 20 0;
#X connect 10 0 15 0;
#X connect 11 0 21 0;
#X connect 12 0 7 1;
#X connect 13 0 11 0;
#X connect 13 1 11 1;
#X connect 16 0 17 0;
#X connect 17 0 3 0;
#X connect 18 0 6 0;
#X connect 19 0 6 0;
#X connect 21 0 12 0;
