#N canvas 1306 525 523 395 12;
#X obj 127 166 rnd-bang-env;
#X text 127 54 random bang;
#X obj 29 322 dac~;
#X obj 208 278 bng 19 250 50 0 empty empty empty 0 -10 0 12 #fcfcfc #000000 #000000;
#X obj 29 135 osc~ 100;
#X obj 29 251 *~;
#X obj 208 302 s rnd-freq;
#X obj 30 58 r rnd-freq;
#X obj 30 84 random 600;
#X obj 30 109 + 100;
#X obj 29 281 +~ 0.25;
#X text 213 118 random envelope;
#X text 23 363 (c) 2022/2024 AChim Bornhoeft;
#X msg 127 74 1 0 2000 4000;
#X msg 135 122 0;
#X text 164 122 off;
#X msg 208 138 10 500 0.5 2 200 1500 0.7 3;
#X obj 124 275 snapshot~;
#X obj 127 327 hsl 162 19 0 1 0 0 empty empty empty -2 -10 0 12 #fcfcfc #000000 #000000 0 1;
#X obj 140 231 metro 10;
#X obj 140 206 tgl 19 0 empty empty empty 0 -10 0 12 #fcfcfc #000000 #000000 0 1;
#X floatatom 124 301 5 0 0 0 - - - 0;
#X text 244 167 rnd-env args: \; attack time - low/high \; attack curve - low/high \; release time - low/high \; release curve - low/high \;;
#X text 237 50 rnd bang args: \; on/off \; initial delay \; random duration - low/high \;;
#X text 220 250 all durations in milliseconds;
#X text 28 18 [rnd-bang-env]: random bang and envelope generator;
#X connect 0 0 5 1;
#X connect 0 0 17 0;
#X connect 0 1 3 0;
#X connect 3 0 6 0;
#X connect 4 0 5 0;
#X connect 5 0 10 0;
#X connect 7 0 8 0;
#X connect 8 0 9 0;
#X connect 9 0 4 0;
#X connect 10 0 2 1;
#X connect 10 0 2 0;
#X connect 13 0 0 0;
#X connect 14 0 0 0;
#X connect 16 0 0 1;
#X connect 17 0 21 0;
#X connect 19 0 17 0;
#X connect 20 0 19 0;
#X connect 21 0 18 0;
