#N canvas 535 120 445 331 10;
#X text 43 24 Round a float to the nearest integer;
#X text 48 276 Written by Alexandros Drymonitis;
#X msg 128 103 2.5;
#X obj 111 179 round-int;
#X floatatom 111 211 5 0 0 0 - - -, f 5;
#X msg 138 125 2.51;
#X msg 111 79 2.49;
#X msg 141 151 3;
#X connect 2 0 3 0;
#X connect 3 0 4 0;
#X connect 5 0 3 0;
#X connect 6 0 3 0;
#X connect 7 0 3 0;
