#N canvas 25 60 345 296 10;
#X msg 119 87 10;
#X obj 119 64 loadbang;
#X obj 119 109 pow \$1;
#X obj 79 142 * 1;
#X obj 79 63 inlet;
#X obj 119 186 / 1;
#X msg 119 164 1;
#X obj 79 164 + 0.5;
#X obj 79 189 div;
#X obj 79 236 outlet;
#X obj 79 212 * 1;
#X text 18 269 (c) 2009 AChim Bornhoeft;
#X text 20 36 arg: number of decimal places;
#X text 17 14 [round] round to specific number of decimal places;
#X obj 119 130 t b f;
#X connect 0 0 2 0;
#X connect 1 0 0 0;
#X connect 2 0 3 1;
#X connect 2 0 14 0;
#X connect 3 0 7 0;
#X connect 4 0 3 0;
#X connect 5 0 10 1;
#X connect 6 0 5 0;
#X connect 7 0 8 0;
#X connect 8 0 10 0;
#X connect 10 0 9 0;
#X connect 14 0 6 0;
#X connect 14 1 5 1;
