#N canvas 1245 749 252 382 12;
#X obj 57 43 t b f;
#X msg 57 67 60;
#X obj 57 91 /;
#X obj 89 195 div 60;
#X obj 89 227 * 60;
#X obj 71 255 -;
#X obj 57 169 t f f;
#X obj 57 143 *;
#X obj 75 115 inlet quarters;
#X obj 24 312 outlet minutes;
#X obj 71 285 outlet seconds;
#X obj 57 17 inlet BPM;
#X text 26 342 (c) 2023 AChim Bornhoeft;
#X connect 0 0 1 0;
#X connect 0 1 2 1;
#X connect 1 0 2 0;
#X connect 2 0 7 0;
#X connect 3 0 9 0;
#X connect 3 0 4 0;
#X connect 4 0 5 1;
#X connect 5 0 10 0;
#X connect 6 0 5 0;
#X connect 6 1 3 0;
#X connect 7 0 6 0;
#X connect 8 0 7 1;
#X connect 11 0 0 0;
