#N canvas 1245 749 324 310 12;
#X floatatom 41 123 5 0 0 1 BPM - - 0;
#X floatatom 136 123 5 0 0 1 Quarters - - 0;
#X obj 89 52 loadbang;
#X floatatom 41 207 5 0 0 3 Minutes - - 0;
#X floatatom 136 206 5 0 0 3 Seconds - - 0;
#X obj 41 167 score-duration;
#X msg 41 98 60;
#X msg 136 94 100;
#X text 35 266 (c) 2023 AChim Bornhoeft;
#X text 38 19 Score duration from BPM and quarters;
#X connect 0 0 5 0;
#X connect 1 0 5 1;
#X connect 2 0 7 0;
#X connect 2 0 6 0;
#X connect 5 0 3 0;
#X connect 5 1 4 0;
#X connect 6 0 0 0;
#X connect 7 0 1 0;
