#N canvas 913 686 518 281 12;
#X text 35 21 semitones just returns the right src from the given semitone transposition \, e.g. (semitones 12) will return 2;
#X floatatom 36 179 10 0 0 0 - - - 0;
#X floatatom 36 124 5 0 0 0 - - - 0;
#X obj 194 80 bng 15 250 50 0 empty empty empty 17 7 0 10 #fcfcfc #000000 #000000;
#X floatatom 194 144 10 0 0 0 - - - 0;
#X obj 36 151 semi2srt;
#X obj 194 108 semi2srt 12;
#X obj 36 68 loadbang;
#X msg 36 96 -7;
#X text 37 216 (c) 2006 ACim Bornhoeft;
#X connect 2 0 5 0;
#X connect 3 0 6 0;
#X connect 5 0 1 0;
#X connect 6 0 4 0;
#X connect 7 0 8 0;
#X connect 8 0 2 0;
