#N canvas 207 215 425 261 10;
#X obj 37 168 pow 2;
#X obj 68 142 / 12;
#X obj 37 193 outlet;
#X obj 37 118 t b f;
#X msg 37 143 2;
#X obj 37 60 inlet;
#X text 32 18 semitones just returns the right src from the given semitone transposition \, e.g. (semitones 12) will return 2;
#X obj 37 90 f \$1;
#X text 28 229 (c) 2006 ACim Bornhoeft;
#X connect 0 0 2 0;
#X connect 1 0 0 1;
#X connect 3 0 4 0;
#X connect 3 1 1 0;
#X connect 4 0 0 0;
#X connect 5 0 7 0;
#X connect 7 0 3 0;
