#N canvas 642 431 394 358 12;
#X obj 28 149 soundfiler;
#X obj 28 74 symbol;
#X obj 28 176 / 44.1;
#X obj 28 47 t a b;
#X obj 81 73 f \$0;
#X obj 28 98 pack s f;
#X msg 28 123 read -resize \$1 \$2-table;
#X obj 60 233 outlet;
#X obj 28 18 inlet;
#X text 23 318 (c) 2015 Achim Bornhoeft;
#X obj 28 208 t b f;
#X obj 28 289 s \$0-table;
#X msg 28 259 resize 1;
#X obj 219 122 array define \$0-table;
#X connect 0 0 2 0;
#X connect 1 0 5 0;
#X connect 2 0 10 0;
#X connect 3 0 1 0;
#X connect 3 1 4 0;
#X connect 4 0 5 1;
#X connect 5 0 6 0;
#X connect 6 0 0 0;
#X connect 8 0 3 0;
#X connect 10 0 12 0;
#X connect 10 1 7 0;
#X connect 12 0 11 0;
