#N canvas 1260 936 346 386 10;
#X obj 96 131 f;
#X obj 124 131 + 1;
#X floatatom 198 209 1 0 0 0 - - - 36;
#X msg 214 60 4;
#X msg 247 61 8;
#X obj 152 131 mod 2;
#X msg 181 60 2;
#X obj 23 179 noise~;
#X obj 124 160 t b f;
#X obj 71 255 vline~;
#X obj 23 298 *~;
#X msg 151 293 set \$1;
#X obj 151 344 dac~ \$1;
#X obj 97 109 metro 1500;
#X msg 73 231 0 \, 1 80 \, 0 80 1000;
#X obj 181 32 sel 0 1 2;
#X obj 180 9 inlet;
#X obj 97 51 inlet;
#X obj 23 204 *~ 0.15;
#X obj 280 60 f;
#X floatatom 280 82 5 0 0 0 - - - 0;
#X obj 198 259 print out;
#X connect 0 0 1 0;
#X connect 1 0 5 0;
#X connect 1 0 8 0;
#X connect 2 0 11 0;
#X connect 2 0 21 0;
#X connect 3 0 5 1;
#X connect 4 0 5 1;
#X connect 5 0 0 1;
#X connect 6 0 5 1;
#X connect 7 0 18 0;
#X connect 8 0 14 0;
#X connect 8 1 2 0;
#X connect 9 0 10 1;
#X connect 10 0 12 0;
#X connect 11 0 12 0;
#X connect 13 0 0 0;
#X connect 14 0 9 0;
#X connect 15 0 6 0;
#X connect 15 1 3 0;
#X connect 15 2 4 0;
#X connect 15 3 19 0;
#X connect 16 0 15 0;
#X connect 16 0 19 1;
#X connect 17 0 13 0;
#X connect 18 0 10 0;
#X connect 19 0 20 0;
#X connect 20 0 5 1;
#X coords 0 386 1 385 24 45 0;
