#N canvas 827 838 496 207 12;
#X obj 225 89 hradio 15 1 1 3 empty empty 2\ 4\ 8\ ch 4 -8 0 13 #fcfcfc #000000 #000000 0;
#X obj 144 121 tgl 15 0 empty empty on/off -10 -10 0 12 #fcfcfc #000000 #000000 0 1;
#X msg 244 120 3;
#X obj 144 161 speaker-test;
#X text 46 31 Speaker test with noise bursts for 2/4/8 channels in circle. (Define arbitrary number of channels with a message.);
#X text 275 119 any channel number;
#X connect 0 0 3 1;
#X connect 1 0 3 0;
#X connect 2 0 3 1;
