#N canvas 788 813 434 215 10;
#X obj 23 37 inlet;
#X obj 110 36 inlet;
#X obj 198 38 inlet;
#X obj 68 138 outlet;
#X obj 164 138 outlet;
#X text 22 17 sec;
#X text 107 17 msec;
#X text 193 20 samples;
#X obj 164 111 * 1000;
#X obj 69 113 / 1000;
#X obj 332 56 samplerate~;
#X obj 331 33 loadbang;
#X obj 259 111 *;
#X obj 119 112 /;
#X obj 331 78 / 1000;
#X obj 284 111 *;
#X obj 215 111 /;
#X obj 259 137 int;
#X obj 259 158 outlet;
#X text 27 176 [c] 2006 AChim Bornhoeft;
#X connect 0 0 8 0;
#X connect 0 0 12 0;
#X connect 0 0 3 0;
#X connect 1 0 9 0;
#X connect 1 0 15 0;
#X connect 1 0 4 0;
#X connect 2 0 16 0;
#X connect 2 0 13 0;
#X connect 2 0 17 0;
#X connect 8 0 4 0;
#X connect 9 0 3 0;
#X connect 10 0 12 1;
#X connect 10 0 13 1;
#X connect 10 0 14 0;
#X connect 11 0 10 0;
#X connect 12 0 17 0;
#X connect 13 0 3 0;
#X connect 14 0 15 1;
#X connect 14 0 16 1;
#X connect 15 0 17 0;
#X connect 16 0 4 0;
#X connect 17 0 18 0;
