#N canvas 496 335 289 336 12;
#X obj 60 148 delay 1000;
#X obj 132 179 f;
#X obj 166 179 + 1;
#X floatatom 132 203 5 0 0 0 - - - 0;
#X obj 93 250 spigot;
#X obj 132 226 <;
#X msg 150 132 0;
#X obj 37 77 unpack f f;
#X obj 104 102 t b f b;
#X obj 60 276 outlet;
#X msg 37 17 2 1000;
#X obj 49 46 inlet;
#X text 97 12 number of repetitions \; delay time (msecs);
#X obj 60 212 bng 19 250 50 0 empty empty empty 0 -10 0 12 #fcfcfc #000000 #000000;
#X obj 154 256 sel 0;
#X msg 154 280 stop;
#X connect 0 0 13 0;
#X connect 1 0 2 0;
#X connect 1 0 3 0;
#X connect 2 0 1 1;
#X connect 3 0 5 0;
#X connect 4 0 0 0;
#X connect 5 0 4 1;
#X connect 5 0 14 0;
#X connect 6 0 1 1;
#X connect 7 0 5 1;
#X connect 7 1 8 0;
#X connect 8 0 13 0;
#X connect 8 1 0 1;
#X connect 8 2 6 0;
#X connect 10 0 7 0;
#X connect 11 0 7 0;
#X connect 13 0 9 0;
#X connect 13 0 1 0;
#X connect 13 0 4 0;
#X connect 14 0 15 0;
#X connect 15 0 0 0;
