#N canvas 702 139 526 635 12;
#X msg 306 395 stop;
#X obj 273 315 t f b;
#X obj 306 430 t a;
#X obj 114 156 select 0 1;
#X msg 241 387 start;
#X obj 315 260 + 1;
#X obj 273 260 f 0;
#X floatatom 273 289 5 0 0 0 - - - 0;
#X msg 291 229 0;
#X text 331 228 <-- reset file number;
#X obj 241 234 t b b;
#X text 206 156 <-- Recording time (msec);
#X obj 147 218 spigot;
#X obj 186 190 > 0;
#X msg 273 344 open \$1-soundfile.wav;
#X obj 34 559 writesf~ 1;
#X obj 34 43 inlet~;
#X text 36 19 signal;
#X obj 115 43 inlet;
#X obj 186 43 inlet;
#X text 115 17 on/off;
#X text 182 21 rec time;
#X obj 292 47 inlet;
#X text 291 21 file counter reset;
#X text 232 175 if 0 (default) timed recording is off.;
#X text 36 595 (c) 2007 Achim Bornhoeft;
#X msg 114 387 stop;
#X obj 147 250 del;
#X msg 147 303 \; tog 0 \;;
#N canvas 92 117 256 213 todo 0;
#X obj 61 137 line;
#X msg 61 74 0 10;
#X msg 73 107 1 10;
#X obj 43 165 *~;
#X text 32 32 automatic fade in and out;
#X connect 0 0 3 1;
#X connect 1 0 0 0;
#X connect 2 0 0 0;
#X restore 311 554 pd todo;
#X obj 66 314 timer;
#X floatatom 66 344 5 0 0 0 - - - 0;
#X obj 115 71 t f f;
#X msg 147 105 \; pd dsp \$1 \;;
#X connect 0 0 2 0;
#X connect 1 0 14 0;
#X connect 1 1 0 0;
#X connect 2 0 15 0;
#X connect 3 0 26 0;
#X connect 3 0 30 1;
#X connect 3 1 10 0;
#X connect 3 1 12 0;
#X connect 4 0 15 0;
#X connect 5 0 6 1;
#X connect 6 0 5 0;
#X connect 6 0 7 0;
#X connect 7 0 1 0;
#X connect 8 0 6 1;
#X connect 10 0 4 0;
#X connect 10 0 30 0;
#X connect 10 1 6 0;
#X connect 12 0 27 0;
#X connect 13 0 12 1;
#X connect 14 0 2 0;
#X connect 16 0 15 0;
#X connect 18 0 32 0;
#X connect 19 0 13 0;
#X connect 19 0 27 1;
#X connect 22 0 8 0;
#X connect 26 0 15 0;
#X connect 27 0 28 0;
#X connect 27 0 26 0;
#X connect 30 0 31 0;
#X connect 32 0 3 0;
#X connect 32 1 33 0;
