#N canvas 561 352 442 227 12;
#X obj 52 69 bng 15 250 50 0 empty empty empty 17 7 0 10 #fcfcfc #000000 #000000;
#X obj 147 69 bng 15 250 50 0 empty empty reset\ to\ 0 17 7 0 12 #fcfcfc #000000 #000000;
#X obj 52 92 timed-interval;
#X floatatom 52 119 12 0 0 0 - - - 0;
#X text 48 18 Calculating the time intervals (msecs) between bangs starting from 0;
#X obj 52 148 print msecs;
#X text 45 186 (c) 2017 AChim Bornhoeft;
#X connect 0 0 2 0;
#X connect 1 0 2 1;
#X connect 2 0 3 0;
#X connect 3 0 5 0;
