#N canvas 400 156 629 319 12;
#X msg 385 205 1000;
#X obj 282 85 tgl 15 0 empty empty empty 0 -6 0 10 #fcfcfc #000000 #000000 0 1;
#X obj 282 109 metro 100;
#X text 402 236 arg: suppressing bangs msecs;
#X obj 283 150 random 10;
#X obj 283 191 pack f f f;
#X obj 354 150 random 10;
#X obj 424 150 random 10;
#X obj 283 263 print;
#X obj 157 86 tgl 15 0 empty empty empty 0 -6 0 10 #fcfcfc #000000 #000000 0 1;
#X obj 157 135 random 1000;
#X floatatom 157 165 5 0 0 0 - - - 0;
#X obj 157 110 metro 100;
#X floatatom 157 229 5 0 0 0 - - - 0;
#X obj 37 86 tgl 15 0 empty empty empty 0 -6 0 10 #fcfcfc #000000 #000000 0 1;
#X obj 37 111 metro 80;
#X obj 37 209 bng 15 250 50 0 empty empty empty 17 7 0 10 #fcfcfc #000000 #000000;
#X obj 37 143 bng 15 250 50 0 empty empty empty 17 7 0 10 #fcfcfc #000000 #000000;
#X obj 157 195 timed-gate 3000;
#X obj 283 235 timed-gate 3000;
#X text 25 281 (c) 2008 Achim Bornhoeft;
#X text 33 36 [timed-gate]: anything is delayed by a specific time;
#X obj 37 176 timed-gate 800;
#X connect 0 0 19 1;
#X connect 1 0 2 0;
#X connect 2 0 4 0;
#X connect 2 0 6 0;
#X connect 2 0 7 0;
#X connect 4 0 5 0;
#X connect 5 0 19 0;
#X connect 6 0 5 1;
#X connect 7 0 5 2;
#X connect 9 0 12 0;
#X connect 10 0 11 0;
#X connect 11 0 18 0;
#X connect 12 0 10 0;
#X connect 14 0 15 0;
#X connect 15 0 17 0;
#X connect 17 0 22 0;
#X connect 18 0 13 0;
#X connect 19 0 8 0;
#X connect 22 0 16 0;
