#N canvas 469 494 438 290 12;
#X floatatom 29 193 5 0 0 3 secs - - 0;
#X floatatom 76 193 5 0 0 3 msecs - - 0;
#X floatatom 124 193 7 0 0 3 samples - - 0;
#X obj 124 118 samplerate~;
#X obj 123 96 loadbang;
#X floatatom 124 142 11 0 0 1 samplerate - - 0;
#X floatatom 76 73 11 0 0 2 milliseconds - - 0;
#X floatatom 29 140 6 0 0 2 seconds - - 0;
#X text 28 22 [time-converter]: converts different time measurements;
#X obj 29 166 time-converter;
#X text 30 244 [c] 2006 AChim Bornhoeft;
#X connect 3 0 5 0;
#X connect 4 0 3 0;
#X connect 5 0 9 2;
#X connect 6 0 9 1;
#X connect 7 0 9 0;
#X connect 9 0 0 0;
#X connect 9 1 1 0;
#X connect 9 2 2 0;
