#N canvas 357 982 230 272 12;
#X obj 36 138 f;
#X obj 131 93 / 12;
#X msg 107 122 2;
#X obj 107 156 pow;
#X obj 87 187 *;
#X obj 85 66 t b b f;
#X obj 39 30 inlet;
#X obj 84 31 inlet;
#X obj 87 211 outlet;
#X text 22 240 (c) 2022 AChim Bornhoeft;
#X connect 0 0 4 0;
#X connect 1 0 3 1;
#X connect 2 0 3 0;
#X connect 3 0 4 1;
#X connect 4 0 8 0;
#X connect 5 0 0 0;
#X connect 5 1 2 0;
#X connect 5 2 1 0;
#X connect 6 0 0 0;
#X connect 7 0 5 0;
