#N canvas 528 799 375 354 12;
#X msg 39 83 440;
#X floatatom 134 106 5 0 0 1 semitone\ transposition - - 0;
#X obj 38 277 dac~;
#X obj 39 164 osc~;
#X text 71 82 frequency;
#X obj 58 192 tgl 15 0 empty empty empty 17 7 0 10 #fcfcfc #000000 #000000 0 0.1;
#X obj 39 214 *~;
#X obj 39 51 loadbang;
#X text 34 307 (c) 2022 AChim Bornhoeft;
#X text 40 16 Semitone transposition of frequencies;
#X obj 39 134 transp-hz-semi;
#X connect 0 0 10 0;
#X connect 1 0 10 1;
#X connect 3 0 6 0;
#X connect 5 0 6 1;
#X connect 6 0 2 0;
#X connect 6 0 2 1;
#X connect 7 0 0 0;
#X connect 10 0 3 0;
