#N canvas 925 695 293 259 10;
#X obj 90 10 loadbang;
#X obj 40 186 snapshot~;
#X msg 90 116 1;
#X obj 40 31 inlet~;
#X obj 40 216 outlet;
#X obj 90 144 metro 10;
#X obj 108 34 inlet;
#X obj 108 86 t b f;
#X obj 108 59 f \$1;
#X text 101 217 (c) 2020 \, Achim Bornhoeft;
#X connect 0 0 8 0;
#X connect 1 0 4 0;
#X connect 2 0 5 0;
#X connect 3 0 1 0;
#X connect 5 0 1 0;
#X connect 6 0 8 0;
#X connect 7 0 2 0;
#X connect 7 1 5 1;
#X connect 8 0 7 0;
