#N canvas 388 639 580 578 10;
#X obj 231 357 abs~;
#X obj 231 459 snapshot~;
#X obj 231 482 rmstodb;
#X obj 231 503 - 100;
#X obj 231 526 outlet;
#X obj 296 277 expr 1000 / $f1;
#X floatatom 296 305 5 0 0 1 Hz - - 0;
#X obj 231 392 slop~ 0 0 0 0 1e+09;
#X obj 296 89 inlet;
#X floatatom 296 252 5 0 0 0 - - - 0;
#X text 396 277 convert to hz;
#X text 330 252 peak decay time in ms;
#X obj 46 404 t f b;
#X text 353 54 The env~ object is dedicated to RMS analysis. Its output is in dB (0-100 range \, pd style) but needs to be converted to dBFS (and we do that by simply subtracting 100)., f 31;
#X text 357 374 The slop~ object is used here for peak detection. We need to convert the output to dB with rmstodb and also subtract by 100 to convert it to dBFS., f 31;
#X text 363 510 Copy from PD documentation;
#X obj 108 30 loadbang;
#X floatatom 93 354 5 0 0 0 - - - 0;
#X obj 93 325 max;
#X msg 108 297 0;
#X obj 46 469 - 100;
#X obj 93 381 - 100;
#X obj 46 274 env~ 1024;
#X obj 46 497 pack f f;
#X obj 153 88 inlet;
#X obj 46 523 outlet;
#X obj 46 195 inlet~;
#X obj 108 274 metro \$1;
#X obj 296 125 f \$2;
#X obj 296 173 == 0;
#X msg 296 223 500;
#X obj 296 194 sel 1;
#X obj 153 124 f \$1;
#X floatatom 153 245 5 0 0 0 - - - 0;
#X obj 153 174 == 0;
#X obj 153 195 sel 1;
#X obj 108 88 t b b;
#X obj 228 170 != 0;
#X obj 195 194 spigot;
#X obj 153 147 t f f f, f 8;
#X obj 296 146 t f f f;
#X obj 369 173 != 0;
#X obj 336 194 spigot;
#X text 382 192 if no $ argument then default value \, otherwise $ argument or value from inlet, f 25;
#X msg 153 220 10000;
#X text 354 528 (c) 2015/2023 AChim Bornhoeft;
#X connect 0 0 7 0;
#X connect 1 0 2 0;
#X connect 2 0 3 0;
#X connect 3 0 4 0;
#X connect 5 0 6 0;
#X connect 6 0 7 3;
#X connect 7 0 1 0;
#X connect 8 0 28 0;
#X connect 9 0 5 0;
#X connect 12 0 20 0;
#X connect 12 1 1 0;
#X connect 16 0 36 0;
#X connect 16 0 28 0;
#X connect 17 0 18 1;
#X connect 17 0 21 0;
#X connect 18 0 17 0;
#X connect 19 0 18 1;
#X connect 20 0 23 0;
#X connect 21 0 23 1;
#X connect 22 0 18 0;
#X connect 22 0 12 0;
#X connect 23 0 25 0;
#X connect 24 0 32 0;
#X connect 26 0 22 0;
#X connect 26 0 0 0;
#X connect 27 0 19 0;
#X connect 28 0 40 0;
#X connect 29 0 31 0;
#X connect 30 0 9 0;
#X connect 31 0 30 0;
#X connect 32 0 39 0;
#X connect 33 0 27 1;
#X connect 34 0 35 0;
#X connect 35 0 44 0;
#X connect 36 0 27 0;
#X connect 36 1 32 0;
#X connect 37 0 38 1;
#X connect 38 0 33 0;
#X connect 39 0 34 0;
#X connect 39 1 38 0;
#X connect 39 2 37 0;
#X connect 40 0 29 0;
#X connect 40 1 42 0;
#X connect 40 2 41 0;
#X connect 41 0 42 1;
#X connect 42 0 9 0;
#X connect 44 0 33 0;
