#N canvas 724 636 479 646 12;
#X obj 296 212 / 100;
#X obj 296 149 metro 200;
#X obj 296 191 - 101;
#X obj 343 313 vu 19 200 empty empty -1 -10 0 12 #404040 #000000 1 0;
#X floatatom 356 534 8 0 0 1 Peak - - 0;
#X floatatom 342 563 8 0 0 1 RMS - - 0;
#X floatatom 296 236 5 0 0 0 - - - 0;
#X obj 70 323 vu 19 200 empty empty -1 -10 0 12 #404040 #000000 1 0;
#X obj 53 279 vu-meter;
#X obj 50 160 readsf~;
#X msg 73 131 open 1-4.wav;
#X obj 49 59 tgl 19 0 empty empty empty 0 -10 0 12 #fcfcfc #000000 #000000 0 1;
#X obj 296 62 tgl 19 0 empty empty empty 0 -10 0 12 #fcfcfc #000000 #000000 0 1;
#X msg 181 129 \; pd dsp \$1;
#X obj 49 85 t f b f;
#X msg 115 161 1;
#X floatatom 83 540 8 0 0 1 Peak - - 0;
#X floatatom 69 569 8 0 0 1 RMS - - 0;
#X obj 296 269 vu-meter 10000 300;
#X msg 357 237 5000;
#X obj 66 249 dac~;
#X obj 78 219 *~;
#X obj 96 193 tgl 19 0 empty empty empty 0 -10 0 12 #fcfcfc #000000 #000000 0 0.5;
#X msg 419 240 100;
#X obj 296 170 random 200;
#X text 45 28 [vu-meter]: convert incoming signal for vu-meter;
#X text 73 612 (c) 2015/2023 AChim Bornhoeft;
#X connect 0 0 6 0;
#X connect 1 0 24 0;
#X connect 2 0 0 0;
#X connect 3 0 5 0;
#X connect 3 1 4 0;
#X connect 6 0 18 0;
#X connect 7 0 17 0;
#X connect 7 1 16 0;
#X connect 8 0 7 0;
#X connect 8 1 7 1;
#X connect 9 0 21 0;
#X connect 9 0 8 0;
#X connect 9 1 15 0;
#X connect 10 0 9 0;
#X connect 11 0 14 0;
#X connect 12 0 1 0;
#X connect 12 0 13 0;
#X connect 14 0 9 0;
#X connect 14 1 10 0;
#X connect 14 2 13 0;
#X connect 15 0 14 0;
#X connect 18 0 3 0;
#X connect 18 1 3 1;
#X connect 19 0 18 1;
#X connect 21 0 20 0;
#X connect 21 0 20 1;
#X connect 22 0 21 1;
#X connect 23 0 18 2;
#X connect 24 0 2 0;
