#N canvas 595 250 1102 448 10;
#X obj 517 82 route \$1;
#X text 621 60 idx/x/y - stream;
#X obj 266 332 *~;
#X obj 341 332 *~;
#X obj 415 333 *~;
#X obj 506 332 *~;
#X obj 516 130 unpack f f;
#X text 450 127 x/y;
#X obj 265 360 throw~ chn1;
#X obj 339 359 throw~ chn2;
#X obj 417 360 throw~ chn3;
#X obj 506 360 throw~ chn4;
#X obj 517 60 r xy-data-stream;
#X obj 887 61 r~ sig-\$1;
#X obj 754 129 once;
#X msg 906 149 0;
#X obj 887 242 *~;
#X obj 906 220 line~;
#X text 900 113 nur i/o \; keine fades!!!;
#X obj 776 86 t b b;
#X msg 913 171 0.99;
#X obj 905 199 pack f 25;
#X obj 517 108 t a b;
#X obj 775 64 r \$1-mute-ctlp;
#X obj 596 332 *~;
#X obj 671 332 *~;
#X obj 745 333 *~;
#X obj 836 332 *~;
#X obj 595 360 throw~ chn5;
#X obj 669 359 throw~ chn6;
#X obj 747 360 throw~ chn7;
#X obj 837 360 throw~ chn8;
#X obj 77 219 speaker-position 1 0 1;
#X obj 622 217 speaker-position 7 0 0;
#X obj 183 239 speaker-position 2 0.5 1;
#X obj 262 215 speaker-position 3 1 1;
#X obj 358 242 speaker-position 4 1 0.5;
#X obj 458 214 speaker-position 5 1 0;
#X obj 531 240 speaker-position 6 0.5 0;
#X obj 702 237 speaker-position 8 0 0.5;
#X connect 0 0 22 0;
#X connect 2 0 8 0;
#X connect 3 0 9 0;
#X connect 4 0 10 0;
#X connect 5 0 11 0;
#X connect 6 0 32 0;
#X connect 6 0 33 0;
#X connect 6 0 34 0;
#X connect 6 0 35 0;
#X connect 6 0 36 0;
#X connect 6 0 37 0;
#X connect 6 0 38 0;
#X connect 6 0 39 0;
#X connect 6 1 32 1;
#X connect 6 1 33 1;
#X connect 6 1 34 1;
#X connect 6 1 35 1;
#X connect 6 1 36 1;
#X connect 6 1 37 1;
#X connect 6 1 38 1;
#X connect 6 1 39 1;
#X connect 12 0 0 0;
#X connect 13 0 16 0;
#X connect 14 0 20 0;
#X connect 15 0 21 0;
#X connect 16 0 2 0;
#X connect 16 0 3 0;
#X connect 16 0 4 0;
#X connect 16 0 5 0;
#X connect 16 0 24 0;
#X connect 16 0 25 0;
#X connect 16 0 26 0;
#X connect 16 0 27 0;
#X connect 17 0 16 1;
#X connect 19 0 14 1;
#X connect 19 1 15 0;
#X connect 20 0 21 0;
#X connect 21 0 17 0;
#X connect 22 0 6 0;
#X connect 22 1 14 0;
#X connect 23 0 19 0;
#X connect 24 0 28 0;
#X connect 25 0 29 0;
#X connect 26 0 30 0;
#X connect 27 0 31 0;
#X connect 32 0 2 1;
#X connect 33 0 26 1;
#X connect 34 0 3 1;
#X connect 35 0 4 1;
#X connect 36 0 5 1;
#X connect 37 0 24 1;
#X connect 38 0 25 1;
#X connect 39 0 27 1;
