#N canvas 238 85 987 533 10;
#X obj 36 195 expr max(1 - pow(($f1 - $f3) * ($f1 - $f3) + ($f2 - $f4)
* ($f2 - $f4) \, 0.5) * 2 \, 0);
#X obj 425 193 expr max(1 - pow(($f1 - $f3) * ($f1 - $f3) + ($f2 -
$f4) * ($f2 - $f4) \, 0.5) * 2 \, 0);
#X obj 307 53 loadbang;
#X obj 686 59 loadbang;
#X obj 686 118 0.5;
#X obj 714 118 0.5;
#X text 751 117 Center point;
#X obj 214 290 expr min(1.5*$f1+$f2 \, 1.5)/1.5;
#X obj 307 112 \$2;
#X obj 335 112 \$3;
#X text 374 113 $f3 and $f4 in expr;
#X obj 67 66 inlet;
#X obj 138 59 inlet;
#X obj 217 352 line~;
#X obj 213 319 pack 0 10;
#X obj 216 407 outlet~;
#X obj 69 102 / 200;
#X obj 140 109 / 200;
#X text 361 402 Matthias Leboucher — Hansi Raber;
#X connect 0 0 7 0;
#X connect 1 0 7 1;
#X connect 2 0 8 0;
#X connect 2 0 9 0;
#X connect 3 0 4 0;
#X connect 3 0 5 0;
#X connect 4 0 1 2;
#X connect 5 0 1 3;
#X connect 7 0 14 0;
#X connect 8 0 0 2;
#X connect 9 0 0 3;
#X connect 11 0 16 0;
#X connect 12 0 17 0;
#X connect 13 0 15 0;
#X connect 14 0 13 0;
#X connect 16 0 0 0;
#X connect 16 0 1 0;
#X connect 17 0 0 1;
#X connect 17 0 1 1;
