#N canvas 192 704 703 620 12;
#X msg 51 298 label \$1;
#X obj 51 237 symbol \$1;
#X obj 51 269 makefilename %s;
#X msg 53 458 label \$1;
#X obj 53 397 symbol \$1;
#X obj 53 429 makefilename %s;
#X obj 40 67 cnv 15 150 65 empty \$1-cue_canvas cue-0 30 10 0 20 #f7f7f7 #2f004d 0;
#X obj 99 101 nbx 3 20 0 999 0 0 \$1-setq dummy Set -25 10 0 12 #c6ffc7 #2f004d #2f004d 0 256;
#X obj 40 10 cnv 15 150 15 empty empty cuelist 50 8 0 11 #000000 #ffffff 0;
#X obj 50 575 r #;
#X text 46 550 for comments;
#X text 47 531 recieve dummy;
#X obj 40 26 cnv 15 150 40 empty \$1-section_canvas start 25 20 0 14 #f7f7f7 #2f004d 0;
#X obj 50 207 r \$1-section;
#X obj 52 367 r \$1-cue;
#X obj 51 327 s \$1-section_canvas;
#X obj 53 490 s \$1-cue_canvas;
#X obj 84 575 r /;
#X obj 49 148 loadbang;
#X obj 49 172 s init;
#X obj 389 402 qlist;
#N canvas 559 38 395 475 line-in-qlist 0;
#X obj 169 201 f 0;
#X obj 243 200 + 1;
#X msg 239 157 0;
#X obj 98 289 spigot;
#X obj 168 243 <;
#X obj 169 290 sel 0;
#N canvas 577 108 470 320 fastmetro 0;
#X obj 101 104 select 0 1;
#X obj 101 53 inlet;
#X obj 101 78 t a a;
#X msg 101 126 stop;
#X obj 100 256 outlet;
#X text 85 24 like [metro] \, only faster;
#X obj 100 212 t b b;
#X obj 130 232 del 0;
#X obj 100 155 del;
#X obj 100 188 spigot;
#X obj 221 126 max 0.01;
#X obj 221 83 loadbang;
#X connect 0 0 3 0;
#X connect 0 1 8 0;
#X connect 1 0 2 0;
#X connect 2 0 0 0;
#X connect 2 1 9 1;
#X connect 3 0 8 0;
#X connect 6 0 4 0;
#X connect 6 1 7 0;
#X connect 7 0 8 0;
#X connect 8 0 9 0;
#X connect 9 0 6 0;
#X connect 10 0 8 1;
#X connect 11 0 10 0;
#X restore 98 144 pd fastmetro;
#X obj 98 419 outlet;
#X obj 98 9 inlet;
#X msg 98 82 1;
#X obj 98 114 tgl 15 0 empty empty empty 0 -6 0 10 #fcfcfc #000000 #000000 0 1;
#X obj 98 46 t b f b;
#X obj 308 160 outlet;
#X msg 98 349 next 1;
#X msg 179 348 next;
#X msg 309 129 rewind;
#X obj 308 11 inlet;
#X obj 198 115 + 1;
#X connect 0 0 1 0;
#X connect 0 0 4 0;
#X connect 1 0 0 1;
#X connect 2 0 0 1;
#X connect 3 0 13 0;
#X connect 4 0 3 1;
#X connect 4 0 5 0;
#X connect 5 0 2 0;
#X connect 5 0 10 0;
#X connect 5 0 14 0;
#X connect 6 0 3 0;
#X connect 6 0 0 0;
#X connect 8 0 11 0;
#X connect 9 0 10 0;
#X connect 10 0 6 0;
#X connect 11 0 9 0;
#X connect 11 1 17 0;
#X connect 11 2 15 0;
#X connect 13 0 7 0;
#X connect 14 0 7 0;
#X connect 15 0 12 0;
#X connect 16 0 15 0;
#X connect 17 0 4 1;
#X restore 253 361 pd line-in-qlist;
#N canvas 507 38 420 659 keystepper 1;
#X obj 90 564 f;
#X obj 141 192 key;
#X obj 167 563 +;
#X msg 197 386 -1;
#X msg 90 391 0;
#X obj 150 419 t b a;
#X obj 196 419 t b a;
#X obj 90 419 t b a b;
#X msg 151 523 1;
#X obj 17 421 t b f b;
#X obj 133 294 inlet;
#X obj 123 23 key;
#X obj 124 47 - 48;
#X obj 123 245 *;
#X obj 123 120 ==;
#X obj 124 71 t b f;
#X obj 123 95 f \$1;
#X floatatom 123 144 5 0 0 0 - - - 0;
#X obj 123 168 t b f;
#X obj 90 621 outlet;
#X floatatom 90 594 5 0 0 0 - - - 0;
#X msg 150 389 1;
#X floatatom 123 269 5 0 0 0 - - - 0;
#X obj 90 364 bng 19 250 50 0 empty empty empty 0 -10 0 12 #fcfcfc #000000 #000000;
#X obj 150 362 bng 19 250 50 0 empty empty empty 0 -10 0 12 #fcfcfc #000000 #000000;
#X obj 197 360 bng 19 250 50 0 empty empty empty 0 -10 0 12 #fcfcfc #000000 #000000;
#X obj 123 219 f;
#X obj 123 319 sel 114 32 8;
#X text 223 308 114 = reset to first line \; 32 = 1 line forward \; 8 = 1 line backward;
#X obj 17 392 r \$1-setq;
#X connect 0 0 2 0;
#X connect 0 0 20 0;
#X connect 1 0 26 1;
#X connect 2 0 0 1;
#X connect 3 0 6 0;
#X connect 4 0 7 0;
#X connect 5 0 0 0;
#X connect 5 1 2 1;
#X connect 6 0 0 0;
#X connect 6 1 2 1;
#X connect 7 0 0 0;
#X connect 7 1 0 1;
#X connect 7 2 8 0;
#X connect 8 0 2 1;
#X connect 9 0 0 0;
#X connect 9 1 0 1;
#X connect 9 2 8 0;
#X connect 10 0 27 0;
#X connect 11 0 12 0;
#X connect 12 0 15 0;
#X connect 13 0 22 0;
#X connect 14 0 17 0;
#X connect 15 0 16 0;
#X connect 15 1 14 1;
#X connect 16 0 14 0;
#X connect 17 0 18 0;
#X connect 18 0 26 0;
#X connect 18 1 13 1;
#X connect 20 0 19 0;
#X connect 21 0 5 0;
#X connect 22 0 27 0;
#X connect 23 0 4 0;
#X connect 24 0 21 0;
#X connect 25 0 3 0;
#X connect 26 0 13 0;
#X connect 27 0 23 0;
#X connect 27 1 24 0;
#X connect 27 2 25 0;
#X connect 29 0 9 0;
#X restore 253 311 pd keystepper;
#X obj 389 266 makefilename %s;
#X msg 389 298 read \$1;
#X obj 389 204 sel 113;
#X msg 253 249 114;
#X obj 324 210 t b b;
#X obj 389 148 key;
#X floatatom 389 177 5 0 0 1 - - - 0;
#X obj 389 237 symbol \$2;
#X text 283 250 "r";
#X obj 253 155 key;
#X floatatom 253 184 5 0 0 1 - - - 0;
#X obj 253 210 sel 114;
#X text 449 204 "q";
#X floatatom 253 336 7 0 0 0 - - - 0;
#X obj 323 183 r init;
#X text 434 402 See/edit content;
#X text 233 40 space -> \$1 = 1 line forward \; backspace -> \$1 = 1 line backward \; r = reset to first line \; q = read qlist file \; set = insert number (from 0) in qlist \;;
#X connect 0 0 15 0;
#X connect 1 0 2 0;
#X connect 2 0 0 0;
#X connect 3 0 16 0;
#X connect 4 0 5 0;
#X connect 5 0 3 0;
#X connect 13 0 1 0;
#X connect 14 0 4 0;
#X connect 18 0 19 0;
#X connect 20 1 21 1;
#X connect 21 0 20 0;
#X connect 21 1 20 0;
#X connect 22 0 36 0;
#X connect 23 0 24 0;
#X connect 24 0 20 0;
#X connect 25 0 30 0;
#X connect 26 0 22 0;
#X connect 27 0 26 0;
#X connect 27 1 30 0;
#X connect 28 0 29 0;
#X connect 29 0 25 0;
#X connect 30 0 23 0;
#X connect 32 0 33 0;
#X connect 33 0 34 0;
#X connect 34 0 26 0;
#X connect 36 0 21 0;
#X connect 37 0 27 0;
#X coords 0 -1 1 1 150 120 2 40 10;
