#N canvas 922 647 738 446 12;
#X obj 44 347 line;
#X obj 47 377 hsl 128 15 0 9 0 0 empty empty empty -2 -6 0 8 #fcfcfc #000000 #000000 0 1;
#X obj 200 347 line;
#X obj 203 377 hsl 128 15 0 9 0 0 empty empty empty -2 -6 0 8 #fcfcfc #000000 #000000 0 1;
#X text 36 21 [cuelist];
#X obj 40 112 cuelist 1 1-qlist.txt;
#X obj 44 319 r 1-send1;
#X obj 384 319 r 1-liste;
#X listbox 384 343 20 0 0 0 - - - 0;
#X obj 200 319 r 1-send2;
#X floatatom 200 398 5 0 0 0 - - - 0;
#X floatatom 44 397 5 0 0 0 - - - 0;
#X text 214 141 space -> \$1 = 1 line forward \; backspace -> \$1 = 1 line backward \; r = reset to first line \; q = read qlist file \; set = insert number (from 0) in qlist \;;
#X text 124 21 A manual stepper for qlist files \; Creation: [cuelist <channel> <name of cuelist file>] \; See cuelist.txt for parameters.;
#X text 213 111 [cuelist 1 1-qlist.txt];
#X connect 0 0 1 0;
#X connect 1 0 11 0;
#X connect 2 0 3 0;
#X connect 3 0 10 0;
#X connect 6 0 0 0;
#X connect 7 0 8 0;
#X connect 9 0 2 0;
#X coords 0 0 1 1 200 80 0;
