#N canvas 206 289 899 610 12;
#X text 67 28 Granular Synthesis with max 20 grain streams;
#X obj 70 67 granulator 1;
#N canvas 0 22 450 300 (subpatch) 0;
#X array 1-buffer 155648 float 2;
#X coords 0 1 155648 -1 320 240 1 0 0;
#X restore 541 115 graph;
#N canvas 257 249 338 248 init 0;
#X obj 53 51 loadbang;
#X obj 53 114 soundfiler;
#X floatatom 53 144 7 0 0 0 - - -, f 7;
#X msg 53 82 read -resize 1-4.wav 1-buffer;
#X obj 53 174 s 1-buf-len-sr;
#X msg 186 157 \; pd dsp 1 \;;
#X connect 0 0 3 0;
#X connect 0 0 5 0;
#X connect 1 0 2 0;
#X connect 2 0 4 0;
#X connect 3 0 1 0;
#X restore 711 29 pd init;
#X obj 543 446 tgl 15 0 empty empty empty 17 7 0 10 -262144 -258113
-1 1 1;
#N canvas 0 22 368 239 key-control 0;
#X obj 38 30 key;
#X floatatom 37 66 5 0 0 0 - - -, f 5;
#X obj 38 135 outlet;
#X obj 38 95 sel 32 110;
#X obj 195 138 + 1;
#X obj 131 185 outlet;
#X obj 133 137 f 1;
#X obj 253 136 mod 6;
#X connect 0 0 1 0;
#X connect 1 0 3 0;
#X connect 3 0 2 0;
#X connect 3 1 6 0;
#X connect 4 0 7 0;
#X connect 6 0 4 0;
#X connect 6 0 5 0;
#X connect 7 0 6 1;
#X restore 544 414 pd key-control;
#X obj 653 449 hradio 15 1 0 6 empty empty empty 0 -8 0 10 -262144
-1 -1 1;
#N canvas 982 137 751 626 examples 0;
#X obj 53 36 inlet;
#X msg 105 316 \; 1-granulator 8 40 100 400 0 0.6 0 0 1 1000;
#X msg 122 361 \; 1-granulator 8 40 100 400 0 0.5 1 7 1 2000;
#X obj 52 79 sel 0 1 2 3 4 5;
#X obj 224 142 loadbang;
#X msg 77 270 \; 1-granulator 20 44 0 300 0 1 0 0 1 1000 \;;
#X msg 53 208 \; 1-granulator 0 0 0 0 0 0 0 0 0 200 \;;
#X msg 151 413 \; 1-granulator 12 80 0 200 0.05 0.7 0 0 1 3000;
#X msg 177 474 \; 1-granulator 12 100 300 200 0.2 0.5 3 12 1 4000;
#X connect 0 0 3 0;
#X connect 3 0 6 0;
#X connect 3 1 5 0;
#X connect 3 2 1 0;
#X connect 3 3 2 0;
#X connect 3 4 7 0;
#X connect 3 5 8 0;
#X connect 4 0 6 0;
#X restore 653 486 pd examples;
#X msg 543 470 \; pd dsp \$1 \;;
#X obj 158 451 bng 15 250 50 0 empty empty empty 17 7 0 10 -262144
-1 -1;
#X obj 158 479 openpanel;
#X obj 158 535 soundfiler;
#X msg 158 508 read -resize \$1 1-buffer;
#X text 188 446 change audio file;
#X connect 4 0 8 0;
#X connect 5 0 4 0;
#X connect 5 1 6 0;
#X connect 6 0 7 0;
#X connect 9 0 10 0;
#X connect 10 0 12 0;
#X connect 12 0 11 0;
